<?xml version="1.0" encoding="UTF-8"?>
<svg xmlns="http://www.w3.org/2000/svg" xmlns:xlink="http://www.w3.org/1999/xlink" width="166px" height="166px" viewBox="0 0 166 166" version="1.1">
<defs>
<clipPath id="clip1">
  <path d="M 166.003906 83 C 166.003906 37.160156 128.839844 0 83 0 C 37.160156 0 0 37.160156 0 83 C 0 128.839844 37.160156 166.003906 83 166.003906 C 128.839844 166.003906 166.003906 128.839844 166.003906 83 Z M 166.003906 83 "/>
</clipPath>
<clipPath id="clip2">
  <path d="M 0 49 L 166 49 L 166 166 L 0 166 Z M 0 49 "/>
</clipPath>
<clipPath id="clip3">
  <path d="M 166.003906 83 C 166.003906 37.160156 128.839844 0 83 0 C 37.160156 0 0 37.160156 0 83 C 0 128.839844 37.160156 166.003906 83 166.003906 C 128.839844 166.003906 166.003906 128.839844 166.003906 83 Z M 166.003906 83 "/>
</clipPath>
<clipPath id="clip4">
  <path d="M 0 116 L 166 116 L 166 166 L 0 166 Z M 0 116 "/>
</clipPath>
<clipPath id="clip5">
  <path d="M 166.003906 83 C 166.003906 37.160156 128.839844 0 83 0 C 37.160156 0 0 37.160156 0 83 C 0 128.839844 37.160156 166.003906 83 166.003906 C 128.839844 166.003906 166.003906 128.839844 166.003906 83 Z M 166.003906 83 "/>
</clipPath>
<clipPath id="clip6">
  <path d="M 88 51 L 91 51 L 91 82 L 88 82 Z M 88 51 "/>
</clipPath>
<clipPath id="clip7">
  <path d="M 166.003906 83 C 166.003906 37.160156 128.839844 0 83 0 C 37.160156 0 0 37.160156 0 83 C 0 128.839844 37.160156 166.003906 83 166.003906 C 128.839844 166.003906 166.003906 128.839844 166.003906 83 Z M 166.003906 83 "/>
</clipPath>
<clipPath id="clip8">
  <path d="M 84 48 L 94 48 L 94 85 L 84 85 Z M 84 48 "/>
</clipPath>
<clipPath id="clip9">
  <path d="M 166.003906 83 C 166.003906 37.160156 128.839844 0 83 0 C 37.160156 0 0 37.160156 0 83 C 0 128.839844 37.160156 166.003906 83 166.003906 C 128.839844 166.003906 166.003906 128.839844 166.003906 83 Z M 166.003906 83 "/>
</clipPath>
<clipPath id="clip10">
  <path d="M 88 58 L 96 58 L 96 82 L 88 82 Z M 88 58 "/>
</clipPath>
<clipPath id="clip11">
  <path d="M 166.003906 83 C 166.003906 37.160156 128.839844 0 83 0 C 37.160156 0 0 37.160156 0 83 C 0 128.839844 37.160156 166.003906 83 166.003906 C 128.839844 166.003906 166.003906 128.839844 166.003906 83 Z M 166.003906 83 "/>
</clipPath>
<clipPath id="clip12">
  <path d="M 85 55 L 99 55 L 99 85 L 85 85 Z M 85 55 "/>
</clipPath>
<clipPath id="clip13">
  <path d="M 166.003906 83 C 166.003906 37.160156 128.839844 0 83 0 C 37.160156 0 0 37.160156 0 83 C 0 128.839844 37.160156 166.003906 83 166.003906 C 128.839844 166.003906 166.003906 128.839844 166.003906 83 Z M 166.003906 83 "/>
</clipPath>
<clipPath id="clip14">
  <path d="M 88 53 L 103 53 L 103 82 L 88 82 Z M 88 53 "/>
</clipPath>
<clipPath id="clip15">
  <path d="M 166.003906 83 C 166.003906 37.160156 128.839844 0 83 0 C 37.160156 0 0 37.160156 0 83 C 0 128.839844 37.160156 166.003906 83 166.003906 C 128.839844 166.003906 166.003906 128.839844 166.003906 83 Z M 166.003906 83 "/>
</clipPath>
<clipPath id="clip16">
  <path d="M 85 50 L 106 50 L 106 85 L 85 85 Z M 85 50 "/>
</clipPath>
<clipPath id="clip17">
  <path d="M 166.003906 83 C 166.003906 37.160156 128.839844 0 83 0 C 37.160156 0 0 37.160156 0 83 C 0 128.839844 37.160156 166.003906 83 166.003906 C 128.839844 166.003906 166.003906 128.839844 166.003906 83 Z M 166.003906 83 "/>
</clipPath>
<clipPath id="clip18">
  <path d="M 88 61 L 104 61 L 104 82 L 88 82 Z M 88 61 "/>
</clipPath>
<clipPath id="clip19">
  <path d="M 166.003906 83 C 166.003906 37.160156 128.839844 0 83 0 C 37.160156 0 0 37.160156 0 83 C 0 128.839844 37.160156 166.003906 83 166.003906 C 128.839844 166.003906 166.003906 128.839844 166.003906 83 Z M 166.003906 83 "/>
</clipPath>
<clipPath id="clip20">
  <path d="M 85 58 L 108 58 L 108 85 L 85 85 Z M 85 58 "/>
</clipPath>
<clipPath id="clip21">
  <path d="M 166.003906 83 C 166.003906 37.160156 128.839844 0 83 0 C 37.160156 0 0 37.160156 0 83 C 0 128.839844 37.160156 166.003906 83 166.003906 C 128.839844 166.003906 166.003906 128.839844 166.003906 83 Z M 166.003906 83 "/>
</clipPath>
<clipPath id="clip22">
  <path d="M 88 60 L 112 60 L 112 82 L 88 82 Z M 88 60 "/>
</clipPath>
<clipPath id="clip23">
  <path d="M 166.003906 83 C 166.003906 37.160156 128.839844 0 83 0 C 37.160156 0 0 37.160156 0 83 C 0 128.839844 37.160156 166.003906 83 166.003906 C 128.839844 166.003906 166.003906 128.839844 166.003906 83 Z M 166.003906 83 "/>
</clipPath>
<clipPath id="clip24">
  <path d="M 85 56 L 116 56 L 116 86 L 85 86 Z M 85 56 "/>
</clipPath>
<clipPath id="clip25">
  <path d="M 166.003906 83 C 166.003906 37.160156 128.839844 0 83 0 C 37.160156 0 0 37.160156 0 83 C 0 128.839844 37.160156 166.003906 83 166.003906 C 128.839844 166.003906 166.003906 128.839844 166.003906 83 Z M 166.003906 83 "/>
</clipPath>
<clipPath id="clip26">
  <path d="M 88 68 L 110 68 L 110 82 L 88 82 Z M 88 68 "/>
</clipPath>
<clipPath id="clip27">
  <path d="M 166.003906 83 C 166.003906 37.160156 128.839844 0 83 0 C 37.160156 0 0 37.160156 0 83 C 0 128.839844 37.160156 166.003906 83 166.003906 C 128.839844 166.003906 166.003906 128.839844 166.003906 83 Z M 166.003906 83 "/>
</clipPath>
<clipPath id="clip28">
  <path d="M 85 64 L 114 64 L 114 86 L 85 86 Z M 85 64 "/>
</clipPath>
<clipPath id="clip29">
  <path d="M 166.003906 83 C 166.003906 37.160156 128.839844 0 83 0 C 37.160156 0 0 37.160156 0 83 C 0 128.839844 37.160156 166.003906 83 166.003906 C 128.839844 166.003906 166.003906 128.839844 166.003906 83 Z M 166.003906 83 "/>
</clipPath>
<clipPath id="clip30">
  <path d="M 89 69 L 119 69 L 119 82 L 89 82 Z M 89 69 "/>
</clipPath>
<clipPath id="clip31">
  <path d="M 166.003906 83 C 166.003906 37.160156 128.839844 0 83 0 C 37.160156 0 0 37.160156 0 83 C 0 128.839844 37.160156 166.003906 83 166.003906 C 128.839844 166.003906 166.003906 128.839844 166.003906 83 Z M 166.003906 83 "/>
</clipPath>
<clipPath id="clip32">
  <path d="M 85 66 L 122 66 L 122 86 L 85 86 Z M 85 66 "/>
</clipPath>
<clipPath id="clip33">
  <path d="M 166.003906 83 C 166.003906 37.160156 128.839844 0 83 0 C 37.160156 0 0 37.160156 0 83 C 0 128.839844 37.160156 166.003906 83 166.003906 C 128.839844 166.003906 166.003906 128.839844 166.003906 83 Z M 166.003906 83 "/>
</clipPath>
<clipPath id="clip34">
  <path d="M 89 76 L 115 76 L 115 82 L 89 82 Z M 89 76 "/>
</clipPath>
<clipPath id="clip35">
  <path d="M 166.003906 83 C 166.003906 37.160156 128.839844 0 83 0 C 37.160156 0 0 37.160156 0 83 C 0 128.839844 37.160156 166.003906 83 166.003906 C 128.839844 166.003906 166.003906 128.839844 166.003906 83 Z M 166.003906 83 "/>
</clipPath>
<clipPath id="clip36">
  <path d="M 85 73 L 118 73 L 118 86 L 85 86 Z M 85 73 "/>
</clipPath>
<clipPath id="clip37">
  <path d="M 166.003906 83 C 166.003906 37.160156 128.839844 0 83 0 C 37.160156 0 0 37.160156 0 83 C 0 128.839844 37.160156 166.003906 83 166.003906 C 128.839844 166.003906 166.003906 128.839844 166.003906 83 Z M 166.003906 83 "/>
</clipPath>
<clipPath id="clip38">
  <path d="M 83 58 L 91 58 L 91 82 L 83 82 Z M 83 58 "/>
</clipPath>
<clipPath id="clip39">
  <path d="M 166.003906 83 C 166.003906 37.160156 128.839844 0 83 0 C 37.160156 0 0 37.160156 0 83 C 0 128.839844 37.160156 166.003906 83 166.003906 C 128.839844 166.003906 166.003906 128.839844 166.003906 83 Z M 166.003906 83 "/>
</clipPath>
<clipPath id="clip40">
  <path d="M 80 55 L 94 55 L 94 85 L 80 85 Z M 80 55 "/>
</clipPath>
<clipPath id="clip41">
  <path d="M 166.003906 83 C 166.003906 37.160156 128.839844 0 83 0 C 37.160156 0 0 37.160156 0 83 C 0 128.839844 37.160156 166.003906 83 166.003906 C 128.839844 166.003906 166.003906 128.839844 166.003906 83 Z M 166.003906 83 "/>
</clipPath>
<clipPath id="clip42">
  <path d="M 76 53 L 91 53 L 91 82 L 76 82 Z M 76 53 "/>
</clipPath>
<clipPath id="clip43">
  <path d="M 166.003906 83 C 166.003906 37.160156 128.839844 0 83 0 C 37.160156 0 0 37.160156 0 83 C 0 128.839844 37.160156 166.003906 83 166.003906 C 128.839844 166.003906 166.003906 128.839844 166.003906 83 Z M 166.003906 83 "/>
</clipPath>
<clipPath id="clip44">
  <path d="M 73 50 L 94 50 L 94 85 L 73 85 Z M 73 50 "/>
</clipPath>
<clipPath id="clip45">
  <path d="M 166.003906 83 C 166.003906 37.160156 128.839844 0 83 0 C 37.160156 0 0 37.160156 0 83 C 0 128.839844 37.160156 166.003906 83 166.003906 C 128.839844 166.003906 166.003906 128.839844 166.003906 83 Z M 166.003906 83 "/>
</clipPath>
<clipPath id="clip46">
  <path d="M 75 61 L 90 61 L 90 82 L 75 82 Z M 75 61 "/>
</clipPath>
<clipPath id="clip47">
  <path d="M 166.003906 83 C 166.003906 37.160156 128.839844 0 83 0 C 37.160156 0 0 37.160156 0 83 C 0 128.839844 37.160156 166.003906 83 166.003906 C 128.839844 166.003906 166.003906 128.839844 166.003906 83 Z M 166.003906 83 "/>
</clipPath>
<clipPath id="clip48">
  <path d="M 71 58 L 94 58 L 94 85 L 71 85 Z M 71 58 "/>
</clipPath>
<clipPath id="clip49">
  <path d="M 166.003906 83 C 166.003906 37.160156 128.839844 0 83 0 C 37.160156 0 0 37.160156 0 83 C 0 128.839844 37.160156 166.003906 83 166.003906 C 128.839844 166.003906 166.003906 128.839844 166.003906 83 Z M 166.003906 83 "/>
</clipPath>
<clipPath id="clip50">
  <path d="M 75 67 L 90 67 L 90 82 L 75 82 Z M 75 67 "/>
</clipPath>
<clipPath id="clip51">
  <path d="M 166.003906 83 C 166.003906 37.160156 128.839844 0 83 0 C 37.160156 0 0 37.160156 0 83 C 0 128.839844 37.160156 166.003906 83 166.003906 C 128.839844 166.003906 166.003906 128.839844 166.003906 83 Z M 166.003906 83 "/>
</clipPath>
<clipPath id="clip52">
  <path d="M 72 64 L 94 64 L 94 86 L 72 86 Z M 72 64 "/>
</clipPath>
<clipPath id="clip53">
  <path d="M 166.003906 83 C 166.003906 37.160156 128.839844 0 83 0 C 37.160156 0 0 37.160156 0 83 C 0 128.839844 37.160156 166.003906 83 166.003906 C 128.839844 166.003906 166.003906 128.839844 166.003906 83 Z M 166.003906 83 "/>
</clipPath>
<clipPath id="clip54">
  <path d="M 77 69 L 102 69 L 102 93 L 77 93 Z M 77 69 "/>
</clipPath>
<clipPath id="clip55">
  <path d="M 166.003906 83 C 166.003906 37.160156 128.839844 0 83 0 C 37.160156 0 0 37.160156 0 83 C 0 128.839844 37.160156 166.003906 83 166.003906 C 128.839844 166.003906 166.003906 128.839844 166.003906 83 Z M 166.003906 83 "/>
</clipPath>
<clipPath id="clip56">
  <path d="M 73 66 L 105 66 L 105 96 L 73 96 Z M 73 66 "/>
</clipPath>
<clipPath id="clip57">
  <path d="M 166.003906 83 C 166.003906 37.160156 128.839844 0 83 0 C 37.160156 0 0 37.160156 0 83 C 0 128.839844 37.160156 166.003906 83 166.003906 C 128.839844 166.003906 166.003906 128.839844 166.003906 83 Z M 166.003906 83 "/>
</clipPath>
<clipPath id="clip58">
  <path d="M 44 51 L 73 51 L 73 91 L 44 91 Z M 44 51 "/>
</clipPath>
<clipPath id="clip59">
  <path d="M 166.003906 83 C 166.003906 37.160156 128.839844 0 83 0 C 37.160156 0 0 37.160156 0 83 C 0 128.839844 37.160156 166.003906 83 166.003906 C 128.839844 166.003906 166.003906 128.839844 166.003906 83 Z M 166.003906 83 "/>
</clipPath>
<clipPath id="clip60">
  <path d="M 41 48 L 76 48 L 76 94 L 41 94 Z M 41 48 "/>
</clipPath>
<clipPath id="clip61">
  <path d="M 166.003906 83 C 166.003906 37.160156 128.839844 0 83 0 C 37.160156 0 0 37.160156 0 83 C 0 128.839844 37.160156 166.003906 83 166.003906 C 128.839844 166.003906 166.003906 128.839844 166.003906 83 Z M 166.003906 83 "/>
</clipPath>
<clipPath id="clip62">
  <path d="M 46 54 L 60 54 L 60 81 L 46 81 Z M 46 54 "/>
</clipPath>
<clipPath id="clip63">
  <path d="M 166.003906 83 C 166.003906 37.160156 128.839844 0 83 0 C 37.160156 0 0 37.160156 0 83 C 0 128.839844 37.160156 166.003906 83 166.003906 C 128.839844 166.003906 166.003906 128.839844 166.003906 83 Z M 166.003906 83 "/>
</clipPath>
<clipPath id="clip64">
  <path d="M 38 78 L 55 78 L 55 83 L 38 83 Z M 38 78 "/>
</clipPath>
<clipPath id="clip65">
  <path d="M 166.003906 83 C 166.003906 37.160156 128.839844 0 83 0 C 37.160156 0 0 37.160156 0 83 C 0 128.839844 37.160156 166.003906 83 166.003906 C 128.839844 166.003906 166.003906 128.839844 166.003906 83 Z M 166.003906 83 "/>
</clipPath>
<clipPath id="clip66">
  <path d="M 35 74 L 59 74 L 59 86 L 35 86 Z M 35 74 "/>
</clipPath>
<clipPath id="clip67">
  <path d="M 166.003906 83 C 166.003906 37.160156 128.839844 0 83 0 C 37.160156 0 0 37.160156 0 83 C 0 128.839844 37.160156 166.003906 83 166.003906 C 128.839844 166.003906 166.003906 128.839844 166.003906 83 Z M 166.003906 83 "/>
</clipPath>
<clipPath id="clip68">
  <path d="M 45 111 L 121 111 L 121 116 L 45 116 Z M 45 111 "/>
</clipPath>
<clipPath id="clip69">
  <path d="M 166.003906 83 C 166.003906 37.160156 128.839844 0 83 0 C 37.160156 0 0 37.160156 0 83 C 0 128.839844 37.160156 166.003906 83 166.003906 C 128.839844 166.003906 166.003906 128.839844 166.003906 83 Z M 166.003906 83 "/>
</clipPath>
<clipPath id="clip70">
  <path d="M 44 111 L 122 111 L 122 117 L 44 117 Z M 44 111 "/>
</clipPath>
<clipPath id="clip71">
  <path d="M 166.003906 83 C 166.003906 37.160156 128.839844 0 83 0 C 37.160156 0 0 37.160156 0 83 C 0 128.839844 37.160156 166.003906 83 166.003906 C 128.839844 166.003906 166.003906 128.839844 166.003906 83 Z M 166.003906 83 "/>
</clipPath>
<clipPath id="clip72">
  <path d="M 46 111 L 120 111 L 120 114 L 46 114 Z M 46 111 "/>
</clipPath>
<clipPath id="clip73">
  <path d="M 166.003906 83 C 166.003906 37.160156 128.839844 0 83 0 C 37.160156 0 0 37.160156 0 83 C 0 128.839844 37.160156 166.003906 83 166.003906 C 128.839844 166.003906 166.003906 128.839844 166.003906 83 Z M 166.003906 83 "/>
</clipPath>
<clipPath id="clip74">
  <path d="M 43 82 L 65 82 L 65 99 L 43 99 Z M 43 82 "/>
</clipPath>
<clipPath id="clip75">
  <path d="M 166.003906 83 C 166.003906 37.160156 128.839844 0 83 0 C 37.160156 0 0 37.160156 0 83 C 0 128.839844 37.160156 166.003906 83 166.003906 C 128.839844 166.003906 166.003906 128.839844 166.003906 83 Z M 166.003906 83 "/>
</clipPath>
<clipPath id="clip76">
  <path d="M 40 79 L 68 79 L 68 103 L 40 103 Z M 40 79 "/>
</clipPath>
<clipPath id="clip77">
  <path d="M 166.003906 83 C 166.003906 37.160156 128.839844 0 83 0 C 37.160156 0 0 37.160156 0 83 C 0 128.839844 37.160156 166.003906 83 166.003906 C 128.839844 166.003906 166.003906 128.839844 166.003906 83 Z M 166.003906 83 "/>
</clipPath>
<clipPath id="clip78">
  <path d="M 43 89 L 50 89 L 50 92 L 43 92 Z M 43 89 "/>
</clipPath>
<clipPath id="clip79">
  <path d="M 166.003906 83 C 166.003906 37.160156 128.839844 0 83 0 C 37.160156 0 0 37.160156 0 83 C 0 128.839844 37.160156 166.003906 83 166.003906 C 128.839844 166.003906 166.003906 128.839844 166.003906 83 Z M 166.003906 83 "/>
</clipPath>
<clipPath id="clip80">
  <path d="M 40 85 L 53 85 L 53 95 L 40 95 Z M 40 85 "/>
</clipPath>
<clipPath id="clip81">
  <path d="M 166.003906 83 C 166.003906 37.160156 128.839844 0 83 0 C 37.160156 0 0 37.160156 0 83 C 0 128.839844 37.160156 166.003906 83 166.003906 C 128.839844 166.003906 166.003906 128.839844 166.003906 83 Z M 166.003906 83 "/>
</clipPath>
<clipPath id="clip82">
  <path d="M 43 87 L 50 87 L 50 90 L 43 90 Z M 43 87 "/>
</clipPath>
<clipPath id="clip83">
  <path d="M 166.003906 83 C 166.003906 37.160156 128.839844 0 83 0 C 37.160156 0 0 37.160156 0 83 C 0 128.839844 37.160156 166.003906 83 166.003906 C 128.839844 166.003906 166.003906 128.839844 166.003906 83 Z M 166.003906 83 "/>
</clipPath>
<clipPath id="clip84">
  <path d="M 40 83 L 54 83 L 54 93 L 40 93 Z M 40 83 "/>
</clipPath>
<clipPath id="clip85">
  <path d="M 166.003906 83 C 166.003906 37.160156 128.839844 0 83 0 C 37.160156 0 0 37.160156 0 83 C 0 128.839844 37.160156 166.003906 83 166.003906 C 128.839844 166.003906 166.003906 128.839844 166.003906 83 Z M 166.003906 83 "/>
</clipPath>
<clipPath id="clip86">
  <path d="M 43 84 L 50 84 L 50 88 L 43 88 Z M 43 84 "/>
</clipPath>
<clipPath id="clip87">
  <path d="M 166.003906 83 C 166.003906 37.160156 128.839844 0 83 0 C 37.160156 0 0 37.160156 0 83 C 0 128.839844 37.160156 166.003906 83 166.003906 C 128.839844 166.003906 166.003906 128.839844 166.003906 83 Z M 166.003906 83 "/>
</clipPath>
<clipPath id="clip88">
  <path d="M 40 81 L 54 81 L 54 92 L 40 92 Z M 40 81 "/>
</clipPath>
<clipPath id="clip89">
  <path d="M 166.003906 83 C 166.003906 37.160156 128.839844 0 83 0 C 37.160156 0 0 37.160156 0 83 C 0 128.839844 37.160156 166.003906 83 166.003906 C 128.839844 166.003906 166.003906 128.839844 166.003906 83 Z M 166.003906 83 "/>
</clipPath>
<clipPath id="clip90">
  <path d="M 82 87 L 101 87 L 101 113 L 82 113 Z M 82 87 "/>
</clipPath>
<clipPath id="clip91">
  <path d="M 166.003906 83 C 166.003906 37.160156 128.839844 0 83 0 C 37.160156 0 0 37.160156 0 83 C 0 128.839844 37.160156 166.003906 83 166.003906 C 128.839844 166.003906 166.003906 128.839844 166.003906 83 Z M 166.003906 83 "/>
</clipPath>
<clipPath id="clip92">
  <path d="M 78 84 L 105 84 L 105 116 L 78 116 Z M 78 84 "/>
</clipPath>
<clipPath id="clip93">
  <path d="M 166.003906 83 C 166.003906 37.160156 128.839844 0 83 0 C 37.160156 0 0 37.160156 0 83 C 0 128.839844 37.160156 166.003906 83 166.003906 C 128.839844 166.003906 166.003906 128.839844 166.003906 83 Z M 166.003906 83 "/>
</clipPath>
<clipPath id="clip94">
  <path d="M 50 56 L 128 56 L 128 113 L 50 113 Z M 50 56 "/>
</clipPath>
<clipPath id="clip95">
  <path d="M 166.003906 83 C 166.003906 37.160156 128.839844 0 83 0 C 37.160156 0 0 37.160156 0 83 C 0 128.839844 37.160156 166.003906 83 166.003906 C 128.839844 166.003906 166.003906 128.839844 166.003906 83 Z M 166.003906 83 "/>
</clipPath>
<clipPath id="clip96">
  <path d="M 47 53 L 131 53 L 131 116 L 47 116 Z M 47 53 "/>
</clipPath>
<clipPath id="clip97">
  <path d="M 166.003906 83 C 166.003906 37.160156 128.839844 0 83 0 C 37.160156 0 0 37.160156 0 83 C 0 128.839844 37.160156 166.003906 83 166.003906 C 128.839844 166.003906 166.003906 128.839844 166.003906 83 Z M 166.003906 83 "/>
</clipPath>
<clipPath id="clip98">
  <path d="M 59 83 L 84 83 L 84 98 L 59 98 Z M 59 83 "/>
</clipPath>
<clipPath id="clip99">
  <path d="M 166.003906 83 C 166.003906 37.160156 128.839844 0 83 0 C 37.160156 0 0 37.160156 0 83 C 0 128.839844 37.160156 166.003906 83 166.003906 C 128.839844 166.003906 166.003906 128.839844 166.003906 83 Z M 166.003906 83 "/>
</clipPath>
<clipPath id="clip100">
  <path d="M 56 80 L 87 80 L 87 101 L 56 101 Z M 56 80 "/>
</clipPath>
<clipPath id="clip101">
  <path d="M 166.003906 83 C 166.003906 37.160156 128.839844 0 83 0 C 37.160156 0 0 37.160156 0 83 C 0 128.839844 37.160156 166.003906 83 166.003906 C 128.839844 166.003906 166.003906 128.839844 166.003906 83 Z M 166.003906 83 "/>
</clipPath>
<clipPath id="clip102">
  <path d="M 55 77 L 87 77 L 87 93 L 55 93 Z M 55 77 "/>
</clipPath>
<clipPath id="clip103">
  <path d="M 166.003906 83 C 166.003906 37.160156 128.839844 0 83 0 C 37.160156 0 0 37.160156 0 83 C 0 128.839844 37.160156 166.003906 83 166.003906 C 128.839844 166.003906 166.003906 128.839844 166.003906 83 Z M 166.003906 83 "/>
</clipPath>
<clipPath id="clip104">
  <path d="M 52 74 L 90 74 L 90 96 L 52 96 Z M 52 74 "/>
</clipPath>
<clipPath id="clip105">
  <path d="M 166.003906 83 C 166.003906 37.160156 128.839844 0 83 0 C 37.160156 0 0 37.160156 0 83 C 0 128.839844 37.160156 166.003906 83 166.003906 C 128.839844 166.003906 166.003906 128.839844 166.003906 83 Z M 166.003906 83 "/>
</clipPath>
<clipPath id="clip106">
  <path d="M 54 59 L 82 59 L 82 87 L 54 87 Z M 54 59 "/>
</clipPath>
<clipPath id="clip107">
  <path d="M 166.003906 83 C 166.003906 37.160156 128.839844 0 83 0 C 37.160156 0 0 37.160156 0 83 C 0 128.839844 37.160156 166.003906 83 166.003906 C 128.839844 166.003906 166.003906 128.839844 166.003906 83 Z M 166.003906 83 "/>
</clipPath>
<clipPath id="clip108">
  <path d="M 51 56 L 86 56 L 86 90 L 51 90 Z M 51 56 "/>
</clipPath>
<clipPath id="clip109">
  <path d="M 166.003906 83 C 166.003906 37.160156 128.839844 0 83 0 C 37.160156 0 0 37.160156 0 83 C 0 128.839844 37.160156 166.003906 83 166.003906 C 128.839844 166.003906 166.003906 128.839844 166.003906 83 Z M 166.003906 83 "/>
</clipPath>
<clipPath id="clip110">
  <path d="M 61 88 L 82 88 L 82 96 L 61 96 Z M 61 88 "/>
</clipPath>
<clipPath id="clip111">
  <path d="M 166.003906 83 C 166.003906 37.160156 128.839844 0 83 0 C 37.160156 0 0 37.160156 0 83 C 0 128.839844 37.160156 166.003906 83 166.003906 C 128.839844 166.003906 166.003906 128.839844 166.003906 83 Z M 166.003906 83 "/>
</clipPath>
<clipPath id="clip112">
  <path d="M 57 81 L 84 81 L 84 90 L 57 90 Z M 57 81 "/>
</clipPath>
<clipPath id="clip113">
  <path d="M 166.003906 83 C 166.003906 37.160156 128.839844 0 83 0 C 37.160156 0 0 37.160156 0 83 C 0 128.839844 37.160156 166.003906 83 166.003906 C 128.839844 166.003906 166.003906 128.839844 166.003906 83 Z M 166.003906 83 "/>
</clipPath>
<clipPath id="clip114">
  <path d="M 56 61 L 80 61 L 80 85 L 56 85 Z M 56 61 "/>
</clipPath>
<clipPath id="clip115">
  <path d="M 166.003906 83 C 166.003906 37.160156 128.839844 0 83 0 C 37.160156 0 0 37.160156 0 83 C 0 128.839844 37.160156 166.003906 83 166.003906 C 128.839844 166.003906 166.003906 128.839844 166.003906 83 Z M 166.003906 83 "/>
</clipPath>
<clipPath id="clip116">
  <path d="M 52 89 L 113 89 L 113 113 L 52 113 Z M 52 89 "/>
</clipPath>
<clipPath id="clip117">
  <path d="M 166.003906 83 C 166.003906 37.160156 128.839844 0 83 0 C 37.160156 0 0 37.160156 0 83 C 0 128.839844 37.160156 166.003906 83 166.003906 C 128.839844 166.003906 166.003906 128.839844 166.003906 83 Z M 166.003906 83 "/>
</clipPath>
<clipPath id="clip118">
  <path d="M 107 84 L 114 84 L 114 89 L 107 89 Z M 107 84 "/>
</clipPath>
<clipPath id="clip119">
  <path d="M 166.003906 83 C 166.003906 37.160156 128.839844 0 83 0 C 37.160156 0 0 37.160156 0 83 C 0 128.839844 37.160156 166.003906 83 166.003906 C 128.839844 166.003906 166.003906 128.839844 166.003906 83 Z M 166.003906 83 "/>
</clipPath>
</defs>
<g id="surface1">
<g clip-path="url(#clip1)" clip-rule="nonzero">
<rect x="0" y="0" width="166" height="166" style="fill:rgb(19.215687%,60.784316%,25.882354%);fill-opacity:1;stroke:none;"/>
</g>
<g clip-path="url(#clip2)" clip-rule="nonzero">
<g clip-path="url(#clip3)" clip-rule="nonzero">
<path style=" stroke:none;fill-rule:nonzero;fill:rgb(100%,100%,100%);fill-opacity:1;" d="M 0 49.800781 L 166.003906 49.800781 L 166.003906 166 L 0 166 Z M 0 49.800781 "/>
</g>
</g>
<g clip-path="url(#clip4)" clip-rule="nonzero">
<g clip-path="url(#clip5)" clip-rule="nonzero">
<path style=" stroke:none;fill-rule:nonzero;fill:rgb(85.490197%,16.078432%,10.980392%);fill-opacity:1;" d="M 0 116.199219 L 166.003906 116.199219 L 166.003906 166 L 0 166 Z M 0 116.199219 "/>
</g>
</g>
<g clip-path="url(#clip6)" clip-rule="nonzero">
<g clip-path="url(#clip7)" clip-rule="nonzero">
<path style=" stroke:none;fill-rule:nonzero;fill:rgb(100%,72.156864%,10.980392%);fill-opacity:1;" d="M 90.144531 81.195312 L 90.683594 51.761719 L 88.074219 51.75 L 88.578125 81.195312 Z M 90.144531 81.195312 "/>
</g>
</g>
<g clip-path="url(#clip8)" clip-rule="nonzero">
<g clip-path="url(#clip9)" clip-rule="nonzero">
<path style="fill:none;stroke-width:1.69954;stroke-linecap:butt;stroke-linejoin:miter;stroke:rgb(0%,0%,0%);stroke-opacity:1;stroke-miterlimit:4;" d="M 161.073053 117.312034 L 162.652644 31.065812 L 155.00651 31.031474 L 156.483083 117.312034 Z M 161.073053 117.312034 " transform="matrix(0.341267,0,0,0.341274,35.175579,41.159765)"/>
</g>
</g>
<g clip-path="url(#clip10)" clip-rule="nonzero">
<g clip-path="url(#clip11)" clip-rule="nonzero">
<path style=" stroke:none;fill-rule:nonzero;fill:rgb(100%,72.156864%,10.980392%);fill-opacity:1;" d="M 92.839844 58.730469 L 88.59375 81.035156 L 90.128906 81.355469 L 95.175781 59.136719 Z M 92.839844 58.730469 "/>
</g>
</g>
<g clip-path="url(#clip12)" clip-rule="nonzero">
<g clip-path="url(#clip13)" clip-rule="nonzero">
<path style="fill:none;stroke-width:1.69954;stroke-linecap:butt;stroke-linejoin:miter;stroke:rgb(0%,0%,0%);stroke-opacity:1;stroke-miterlimit:4;" d="M 168.971007 51.485621 L 156.528869 116.842745 L 161.027268 117.781324 L 175.815899 52.676014 Z M 168.971007 51.485621 " transform="matrix(0.341267,0,0,0.341274,35.175579,41.159765)"/>
</g>
</g>
<g clip-path="url(#clip14)" clip-rule="nonzero">
<g clip-path="url(#clip15)" clip-rule="nonzero">
<path style=" stroke:none;fill-rule:nonzero;fill:rgb(100%,72.156864%,10.980392%);fill-opacity:1;" d="M 90.078125 81.507812 L 102.308594 54.730469 L 99.921875 53.679688 L 88.644531 80.882812 Z M 90.078125 81.507812 "/>
</g>
</g>
<g clip-path="url(#clip16)" clip-rule="nonzero">
<g clip-path="url(#clip17)" clip-rule="nonzero">
<path style="fill:none;stroke-width:1.69954;stroke-linecap:butt;stroke-linejoin:miter;stroke:rgb(0%,0%,0%);stroke-opacity:1;stroke-miterlimit:4;" d="M 160.878466 118.227721 L 196.71686 39.764834 L 189.723165 36.685838 L 156.677671 116.396348 Z M 160.878466 118.227721 " transform="matrix(0.341267,0,0,0.341274,35.175579,41.159765)"/>
</g>
</g>
<g clip-path="url(#clip18)" clip-rule="nonzero">
<g clip-path="url(#clip19)" clip-rule="nonzero">
<path style=" stroke:none;fill-rule:nonzero;fill:rgb(100%,72.156864%,10.980392%);fill-opacity:1;" d="M 101.796875 61.558594 L 88.722656 80.742188 L 90 81.648438 L 103.757812 62.929688 Z M 101.796875 61.558594 "/>
</g>
</g>
<g clip-path="url(#clip20)" clip-rule="nonzero">
<g clip-path="url(#clip21)" clip-rule="nonzero">
<path style="fill:none;stroke-width:1.69954;stroke-linecap:butt;stroke-linejoin:miter;stroke:rgb(0%,0%,0%);stroke-opacity:1;stroke-miterlimit:4;" d="M 195.217393 59.772584 L 156.906597 115.984289 L 160.64954 118.63978 L 200.96344 63.790158 Z M 195.217393 59.772584 " transform="matrix(0.341267,0,0,0.341274,35.175579,41.159765)"/>
</g>
</g>
<g clip-path="url(#clip22)" clip-rule="nonzero">
<g clip-path="url(#clip23)" clip-rule="nonzero">
<path style=" stroke:none;fill-rule:nonzero;fill:rgb(100%,72.156864%,10.980392%);fill-opacity:1;" d="M 89.894531 81.769531 L 111.789062 62.089844 L 110.019531 60.175781 L 88.828125 80.625 Z M 89.894531 81.769531 "/>
</g>
</g>
<g clip-path="url(#clip24)" clip-rule="nonzero">
<g clip-path="url(#clip25)" clip-rule="nonzero">
<path style="fill:none;stroke-width:1.69954;stroke-linecap:butt;stroke-linejoin:miter;stroke:rgb(0%,0%,0%);stroke-opacity:1;stroke-miterlimit:4;" d="M 160.34049 118.994608 L 224.497052 61.329251 L 219.311874 55.720671 L 157.215647 115.640906 Z M 160.34049 118.994608 " transform="matrix(0.341267,0,0,0.341274,35.175579,41.159765)"/>
</g>
</g>
<g clip-path="url(#clip26)" clip-rule="nonzero">
<g clip-path="url(#clip27)" clip-rule="nonzero">
<path style=" stroke:none;fill-rule:nonzero;fill:rgb(100%,72.156864%,10.980392%);fill-opacity:1;" d="M 108.539062 68.179688 L 88.953125 80.527344 L 89.765625 81.863281 L 109.769531 70.222656 Z M 108.539062 68.179688 "/>
</g>
</g>
<g clip-path="url(#clip28)" clip-rule="nonzero">
<g clip-path="url(#clip29)" clip-rule="nonzero">
<path style="fill:none;stroke-width:1.69954;stroke-linecap:butt;stroke-linejoin:miter;stroke:rgb(0%,0%,0%);stroke-opacity:1;stroke-miterlimit:4;" d="M 214.973723 79.173692 L 157.581929 115.354754 L 159.962761 119.269314 L 218.57931 85.159992 Z M 214.973723 79.173692 " transform="matrix(0.341267,0,0,0.341274,35.175579,41.159765)"/>
</g>
</g>
<g clip-path="url(#clip30)" clip-rule="nonzero">
<g clip-path="url(#clip31)" clip-rule="nonzero">
<path style=" stroke:none;fill-rule:nonzero;fill:rgb(100%,72.156864%,10.980392%);fill-opacity:1;" d="M 89.621094 81.933594 L 118.347656 72.351562 L 117.476562 69.859375 L 89.101562 80.457031 Z M 89.621094 81.933594 "/>
</g>
</g>
<g clip-path="url(#clip32)" clip-rule="nonzero">
<g clip-path="url(#clip33)" clip-rule="nonzero">
<path style="fill:none;stroke-width:1.69954;stroke-linecap:butt;stroke-linejoin:miter;stroke:rgb(0%,0%,0%);stroke-opacity:1;stroke-miterlimit:4;" d="M 159.539248 119.475344 L 243.715405 91.398106 L 241.162878 84.095507 L 158.016889 115.148725 Z M 159.539248 119.475344 " transform="matrix(0.341267,0,0,0.341274,35.175579,41.159765)"/>
</g>
</g>
<g clip-path="url(#clip34)" clip-rule="nonzero">
<g clip-path="url(#clip35)" clip-rule="nonzero">
<path style=" stroke:none;fill-rule:nonzero;fill:rgb(100%,72.156864%,10.980392%);fill-opacity:1;" d="M 113.746094 76.660156 L 89.253906 80.417969 L 89.46875 81.972656 L 114.136719 79.074219 Z M 113.746094 76.660156 "/>
</g>
</g>
<g clip-path="url(#clip36)" clip-rule="nonzero">
<g clip-path="url(#clip37)" clip-rule="nonzero">
<path style="fill:none;stroke-width:1.69954;stroke-linecap:butt;stroke-linejoin:miter;stroke:rgb(0%,0%,0%);stroke-opacity:1;stroke-miterlimit:4;" d="M 230.231653 104.023134 L 158.463295 115.034264 L 159.092842 119.589804 L 231.376284 111.096812 Z M 230.231653 104.023134 " transform="matrix(0.341267,0,0,0.341274,35.175579,41.159765)"/>
</g>
</g>
<g clip-path="url(#clip38)" clip-rule="nonzero">
<g clip-path="url(#clip39)" clip-rule="nonzero">
<path style=" stroke:none;fill-rule:nonzero;fill:rgb(100%,72.156864%,10.980392%);fill-opacity:1;" d="M 85.910156 58.71875 L 83.574219 59.117188 L 88.59375 81.355469 L 90.128906 81.035156 Z M 85.910156 58.71875 "/>
</g>
</g>
<g clip-path="url(#clip40)" clip-rule="nonzero">
<g clip-path="url(#clip41)" clip-rule="nonzero">
<path style="fill:none;stroke-width:1.69954;stroke-linecap:butt;stroke-linejoin:miter;stroke:rgb(0%,0%,0%);stroke-opacity:1;stroke-miterlimit:4;" d="M 148.665254 51.451283 L 141.820361 52.618783 L 156.528869 117.781324 L 161.027268 116.842745 Z M 148.665254 51.451283 " transform="matrix(0.341267,0,0,0.341274,35.175579,41.159765)"/>
</g>
</g>
<g clip-path="url(#clip42)" clip-rule="nonzero">
<g clip-path="url(#clip43)" clip-rule="nonzero">
<path style=" stroke:none;fill-rule:nonzero;fill:rgb(100%,72.156864%,10.980392%);fill-opacity:1;" d="M 90.078125 80.882812 L 78.835938 53.675781 L 76.441406 54.707031 L 88.644531 81.507812 Z M 90.078125 80.882812 "/>
</g>
</g>
<g clip-path="url(#clip44)" clip-rule="nonzero">
<g clip-path="url(#clip45)" clip-rule="nonzero">
<path style="fill:none;stroke-width:1.69954;stroke-linecap:butt;stroke-linejoin:miter;stroke:rgb(0%,0%,0%);stroke-opacity:1;stroke-miterlimit:4;" d="M 160.878466 116.396348 L 127.935989 36.674392 L 120.919401 39.696158 L 156.677671 118.227721 Z M 160.878466 116.396348 " transform="matrix(0.341267,0,0,0.341274,35.175579,41.159765)"/>
</g>
</g>
<g clip-path="url(#clip46)" clip-rule="nonzero">
<g clip-path="url(#clip47)" clip-rule="nonzero">
<path style=" stroke:none;fill-rule:nonzero;fill:rgb(100%,72.156864%,10.980392%);fill-opacity:1;" d="M 76.941406 61.527344 L 75.003906 62.929688 L 88.722656 81.648438 L 90 80.742188 Z M 76.941406 61.527344 "/>
</g>
</g>
<g clip-path="url(#clip48)" clip-rule="nonzero">
<g clip-path="url(#clip49)" clip-rule="nonzero">
<path style="fill:none;stroke-width:1.69954;stroke-linecap:butt;stroke-linejoin:miter;stroke:rgb(0%,0%,0%);stroke-opacity:1;stroke-miterlimit:4;" d="M 122.384529 59.681015 L 116.707159 63.790158 L 156.906597 118.63978 L 160.64954 115.984289 Z M 122.384529 59.681015 " transform="matrix(0.341267,0,0,0.341274,35.175579,41.159765)"/>
</g>
</g>
<g clip-path="url(#clip50)" clip-rule="nonzero">
<g clip-path="url(#clip51)" clip-rule="nonzero">
<path style=" stroke:none;fill-rule:nonzero;fill:rgb(100%,72.156864%,10.980392%);fill-opacity:1;" d="M 89.894531 80.625 L 76.382812 67.554688 L 75.769531 70 L 88.828125 81.769531 Z M 89.894531 80.625 "/>
</g>
</g>
<g clip-path="url(#clip52)" clip-rule="nonzero">
<g clip-path="url(#clip53)" clip-rule="nonzero">
<path style="fill:none;stroke-width:1.69954;stroke-linecap:butt;stroke-linejoin:miter;stroke:rgb(0%,0%,0%);stroke-opacity:1;stroke-miterlimit:4;" d="M 160.34049 115.640906 L 120.747706 77.342319 L 118.950636 84.507565 L 157.215647 118.994608 Z M 160.34049 115.640906 " transform="matrix(0.341267,0,0,0.341274,35.175579,41.159765)"/>
</g>
</g>
<g clip-path="url(#clip54)" clip-rule="nonzero">
<g clip-path="url(#clip55)" clip-rule="nonzero">
<path style=" stroke:none;fill-rule:nonzero;fill:rgb(100%,72.156864%,10.980392%);fill-opacity:1;" d="M 89.34375 69.984375 C 82.601562 69.984375 77.054688 74.96875 77.054688 81.179688 C 77.054688 87.394531 82.597656 92.40625 89.34375 92.40625 C 96.09375 92.40625 101.667969 87.398438 101.667969 81.179688 C 101.667969 74.964844 96.085938 69.984375 89.34375 69.984375 Z M 89.34375 69.984375 "/>
</g>
</g>
<g clip-path="url(#clip56)" clip-rule="nonzero">
<g clip-path="url(#clip57)" clip-rule="nonzero">
<path style="fill:none;stroke-width:1.69954;stroke-linecap:butt;stroke-linejoin:miter;stroke:rgb(0%,0%,0%);stroke-opacity:1;stroke-miterlimit:4;" d="M 158.72656 84.461781 C 138.97023 84.461781 122.716472 99.066981 122.716472 117.26625 C 122.716472 135.476965 138.958784 150.162287 158.72656 150.162287 C 178.505782 150.162287 194.839665 135.488411 194.839665 117.26625 C 194.839665 99.055535 178.482889 84.461781 158.72656 84.461781 Z M 158.72656 84.461781 " transform="matrix(0.341267,0,0,0.341274,35.175579,41.159765)"/>
</g>
</g>
<g clip-path="url(#clip58)" clip-rule="nonzero">
<g clip-path="url(#clip59)" clip-rule="nonzero">
<path style=" stroke:none;fill-rule:nonzero;fill:rgb(100%,72.156864%,10.980392%);fill-opacity:1;" d="M 44.414062 80.234375 L 44.410156 90.304688 L 49.132812 90.304688 L 49.132812 80.234375 C 48.8125 70.628906 50.566406 66.566406 52.105469 63.929688 C 56.890625 55.730469 66.347656 53.503906 72.273438 53.195312 C 66.453125 50.265625 54.078125 51.09375 47.710938 62.339844 C 44.425781 67.75 44.398438 74.097656 44.414062 80.234375 Z M 44.414062 80.234375 "/>
</g>
</g>
<g clip-path="url(#clip60)" clip-rule="nonzero">
<g clip-path="url(#clip61)" clip-rule="nonzero">
<path style="fill:none;stroke-width:1.69954;stroke-linecap:butt;stroke-linejoin:miter;stroke:rgb(0%,0%,0%);stroke-opacity:1;stroke-miterlimit:4;" d="M 27.071113 114.496298 L 27.059667 144.004296 L 40.898254 144.004296 L 40.898254 114.496298 C 39.959657 86.350385 45.09905 74.44646 49.608895 66.720355 C 63.630624 42.695031 91.342138 36.170765 108.706189 35.266524 C 91.651189 26.681963 55.389282 29.108532 36.731798 62.0618 C 27.105452 77.914623 27.025328 96.514505 27.071113 114.496298 Z M 27.071113 114.496298 " transform="matrix(0.341267,0,0,0.341274,35.175579,41.159765)"/>
</g>
</g>
<g clip-path="url(#clip62)" clip-rule="nonzero">
<g clip-path="url(#clip63)" clip-rule="nonzero">
<path style=" stroke:none;fill-rule:nonzero;fill:rgb(0%,0%,0%);fill-opacity:1;" d="M 60 54.53125 C 52.945312 56.386719 48.976562 62.980469 47.738281 67.3125 C 46.886719 70.304688 46.339844 73.429688 46.453125 80.234375 L 47.132812 80.234375 C 47.03125 76.003906 47.054688 71.5 48.402344 67.332031 C 50.082031 62.128906 53.445312 57.585938 60 54.53125 Z M 60 54.53125 "/>
</g>
</g>
<g clip-path="url(#clip64)" clip-rule="nonzero">
<g clip-path="url(#clip65)" clip-rule="nonzero">
<path style=" stroke:none;fill-rule:nonzero;fill:rgb(100%,72.156864%,10.980392%);fill-opacity:1;" d="M 40.179688 79.21875 L 43.328125 79.21875 L 46.773438 78.242188 L 50.132812 79.21875 L 53.277344 79.21875 L 54.765625 80.234375 L 53.277344 81.246094 L 50.132812 81.246094 L 46.773438 82.222656 L 43.328125 81.246094 L 40.179688 81.246094 L 38.695312 80.234375 Z M 40.179688 79.21875 "/>
</g>
</g>
<g clip-path="url(#clip66)" clip-rule="nonzero">
<g clip-path="url(#clip67)" clip-rule="nonzero">
<path style="fill:none;stroke-width:1.69954;stroke-linecap:butt;stroke-linejoin:miter;stroke:rgb(0%,0%,0%);stroke-opacity:1;stroke-miterlimit:4;" d="M 14.663314 111.520317 L 23.889039 111.520317 L 33.984684 108.658797 L 43.828509 111.520317 L 53.042788 111.520317 L 57.403832 114.496298 L 53.042788 117.460833 L 43.828509 117.460833 L 33.984684 120.322354 L 23.889039 117.460833 L 14.663314 117.460833 L 10.313716 114.496298 Z M 14.663314 111.520317 " transform="matrix(0.341267,0,0,0.341274,35.175579,41.159765)"/>
</g>
</g>
<g clip-path="url(#clip68)" clip-rule="nonzero">
<g clip-path="url(#clip69)" clip-rule="nonzero">
<path style=" stroke:none;fill-rule:nonzero;fill:rgb(100%,72.156864%,10.980392%);fill-opacity:1;" d="M 45.109375 115.910156 L 120.890625 115.910156 L 120.890625 111.675781 L 45.109375 111.675781 Z M 45.109375 115.910156 "/>
</g>
</g>
<g clip-path="url(#clip70)" clip-rule="nonzero">
<g clip-path="url(#clip71)" clip-rule="nonzero">
<path style="fill:none;stroke-width:1.69954;stroke-linecap:butt;stroke-linejoin:miter;stroke:rgb(0%,0%,0%);stroke-opacity:1;stroke-miterlimit:4;" d="M 29.108556 219.033358 L 251.166952 219.033358 L 251.166952 206.625806 L 29.108556 206.625806 Z M 29.108556 219.033358 " transform="matrix(0.341267,0,0,0.341274,35.175579,41.159765)"/>
</g>
</g>
<g clip-path="url(#clip72)" clip-rule="nonzero">
<g clip-path="url(#clip73)" clip-rule="nonzero">
<path style=" stroke:none;fill-rule:nonzero;fill:rgb(0%,0%,0%);fill-opacity:1;" d="M 46.753906 111.675781 C 46.886719 112.464844 47.039062 113.632812 48.160156 113.792969 C 47.871094 113.464844 47.621094 112.457031 47.53125 111.675781 Z M 49.046875 111.675781 C 49.183594 112.464844 49.335938 113.632812 50.453125 113.792969 C 50.167969 113.464844 49.914062 112.457031 49.824219 111.675781 Z M 51.34375 111.675781 C 51.476562 112.464844 51.628906 113.632812 52.75 113.792969 C 52.460938 113.464844 52.210938 112.457031 52.121094 111.675781 Z M 53.636719 111.675781 C 53.773438 112.464844 53.925781 113.632812 55.042969 113.792969 C 54.757812 113.464844 54.503906 112.457031 54.414062 111.675781 Z M 55.933594 111.675781 C 56.066406 112.464844 56.21875 113.632812 57.339844 113.792969 C 57.050781 113.464844 56.796875 112.457031 56.710938 111.675781 Z M 58.226562 111.675781 C 58.363281 112.464844 58.515625 113.632812 59.632812 113.792969 C 59.347656 113.464844 59.09375 112.457031 59.003906 111.675781 Z M 60.523438 111.675781 C 60.65625 112.464844 60.808594 113.632812 61.929688 113.792969 C 61.640625 113.464844 61.390625 112.457031 61.300781 111.675781 Z M 62.816406 111.675781 C 62.949219 112.464844 63.105469 113.632812 64.222656 113.792969 C 63.9375 113.464844 63.683594 112.457031 63.59375 111.675781 Z M 65.113281 111.675781 C 65.246094 112.464844 65.398438 113.632812 66.519531 113.792969 C 66.230469 113.464844 65.976562 112.457031 65.890625 111.675781 Z M 67.40625 111.675781 C 67.539062 112.464844 67.695312 113.632812 68.8125 113.792969 C 68.523438 113.464844 68.273438 112.457031 68.183594 111.675781 Z M 69.703125 111.675781 C 69.835938 112.464844 69.988281 113.632812 71.109375 113.792969 C 70.820312 113.464844 70.566406 112.457031 70.480469 111.675781 Z M 71.996094 111.675781 C 72.128906 112.464844 72.285156 113.632812 73.402344 113.792969 C 73.117188 113.464844 72.863281 112.457031 72.773438 111.675781 Z M 74.292969 111.675781 C 74.425781 112.464844 74.578125 113.632812 75.699219 113.792969 C 75.410156 113.464844 75.15625 112.457031 75.070312 111.675781 Z M 76.585938 111.675781 C 76.71875 112.464844 76.875 113.632812 77.992188 113.792969 C 77.703125 113.464844 77.453125 112.457031 77.363281 111.675781 Z M 78.878906 111.675781 C 79.015625 112.464844 79.167969 113.632812 80.285156 113.792969 C 80 113.464844 79.746094 112.457031 79.660156 111.675781 Z M 81.175781 111.675781 C 81.308594 112.464844 81.460938 113.632812 82.582031 113.792969 C 82.292969 113.464844 82.042969 112.457031 81.953125 111.675781 Z M 83.46875 111.675781 C 83.605469 112.464844 83.757812 113.632812 84.875 113.792969 C 84.589844 113.464844 84.335938 112.457031 84.25 111.675781 Z M 85.765625 111.675781 C 85.898438 112.464844 86.050781 113.632812 87.171875 113.792969 C 86.882812 113.464844 86.632812 112.457031 86.542969 111.675781 Z M 88.058594 111.675781 C 88.195312 112.464844 88.347656 113.632812 89.464844 113.792969 C 89.179688 113.464844 88.925781 112.457031 88.835938 111.675781 Z M 90.355469 111.675781 C 90.488281 112.464844 90.640625 113.632812 91.761719 113.792969 C 91.472656 113.464844 91.222656 112.457031 91.132812 111.675781 Z M 92.648438 111.675781 C 92.785156 112.464844 92.9375 113.632812 94.054688 113.792969 C 93.769531 113.464844 93.515625 112.457031 93.425781 111.675781 Z M 94.945312 111.675781 C 95.078125 112.464844 95.230469 113.632812 96.351562 113.792969 C 96.0625 113.464844 95.8125 112.457031 95.722656 111.675781 Z M 97.238281 111.675781 C 97.375 112.464844 97.527344 113.632812 98.644531 113.792969 C 98.359375 113.464844 98.105469 112.457031 98.015625 111.675781 Z M 99.535156 111.675781 C 99.667969 112.464844 99.820312 113.632812 100.941406 113.792969 C 100.652344 113.464844 100.402344 112.457031 100.3125 111.675781 Z M 101.828125 111.675781 C 101.960938 112.464844 102.117188 113.632812 103.234375 113.792969 C 102.949219 113.464844 102.695312 112.457031 102.605469 111.675781 Z M 104.125 111.675781 C 104.257812 112.464844 104.410156 113.632812 105.53125 113.792969 C 105.242188 113.464844 104.988281 112.457031 104.902344 111.675781 Z M 106.417969 111.675781 C 106.550781 112.464844 106.707031 113.632812 107.824219 113.792969 C 107.539062 113.464844 107.285156 112.457031 107.195312 111.675781 Z M 108.714844 111.675781 C 108.847656 112.464844 109 113.632812 110.121094 113.792969 C 109.832031 113.464844 109.578125 112.457031 109.492188 111.675781 Z M 111.007812 111.675781 C 111.140625 112.464844 111.296875 113.632812 112.414062 113.792969 C 112.128906 113.464844 111.875 112.457031 111.785156 111.675781 Z M 113.304688 111.675781 C 113.4375 112.464844 113.589844 113.632812 114.710938 113.792969 C 114.421875 113.464844 114.167969 112.457031 114.082031 111.675781 Z M 115.597656 111.675781 C 115.730469 112.464844 115.886719 113.632812 117.003906 113.792969 C 116.714844 113.464844 116.464844 112.457031 116.375 111.675781 Z M 117.890625 111.675781 C 118.027344 112.464844 118.179688 113.632812 119.296875 113.792969 C 119.011719 113.464844 118.757812 112.457031 118.671875 111.675781 Z M 117.890625 111.675781 "/>
</g>
</g>
<g clip-path="url(#clip74)" clip-rule="nonzero">
<g clip-path="url(#clip75)" clip-rule="nonzero">
<path style=" stroke:none;fill-rule:nonzero;fill:rgb(100%,72.156864%,10.980392%);fill-opacity:1;" d="M 45.601562 90.195312 C 48.96875 92.460938 50.15625 92.671875 54.414062 91.390625 C 57.453125 95.644531 60.53125 95.316406 63.25 98.882812 L 64.386719 85.953125 C 64.386719 85.953125 56.679688 85.253906 53.03125 84.160156 C 51.84375 83.804688 50.902344 83.195312 49.679688 82.96875 C 46.824219 82.4375 43.585938 82.777344 43.585938 84.441406 C 43.585938 85.007812 43.949219 85.539062 45.09375 85.679688 Z M 45.601562 90.195312 "/>
</g>
</g>
<g clip-path="url(#clip76)" clip-rule="nonzero">
<g clip-path="url(#clip77)" clip-rule="nonzero">
<path style="fill:none;stroke-width:1.69954;stroke-linecap:butt;stroke-linejoin:miter;stroke:rgb(0%,0%,0%);stroke-opacity:1;stroke-miterlimit:4;" d="M 30.550791 143.683805 C 40.417509 150.322532 43.897187 150.940621 56.373664 147.186306 C 65.278893 159.651089 74.298584 158.689618 82.265215 169.13989 L 85.596091 131.253361 C 85.596091 131.253361 63.012523 129.204513 52.321671 125.99961 C 48.841993 124.958016 46.083432 123.172428 42.500738 122.508555 C 34.133486 120.951888 24.644495 121.947697 24.644495 126.823728 C 24.644495 128.483409 25.709002 130.040076 29.062771 130.452135 Z M 30.550791 143.683805 " transform="matrix(0.341267,0,0,0.341274,35.175579,41.159765)"/>
</g>
</g>
<g clip-path="url(#clip78)" clip-rule="nonzero">
<g clip-path="url(#clip79)" clip-rule="nonzero">
<path style=" stroke:none;fill-rule:nonzero;fill:rgb(100%,72.156864%,10.980392%);fill-opacity:1;" d="M 48.808594 89.078125 C 49.222656 89.242188 49.652344 89.722656 49.609375 90.167969 C 49.558594 90.648438 48.976562 90.890625 48.515625 91.125 C 47.570312 91.609375 45.449219 91.6875 44.292969 90.992188 C 43.984375 90.808594 43.855469 90.46875 43.855469 90.132812 C 43.855469 89.78125 44.148438 89.277344 44.148438 89.277344 "/>
</g>
</g>
<g clip-path="url(#clip80)" clip-rule="nonzero">
<g clip-path="url(#clip81)" clip-rule="nonzero">
<path style="fill:none;stroke-width:1.69954;stroke-linecap:butt;stroke-linejoin:miter;stroke:rgb(0%,0%,0%);stroke-opacity:1;stroke-miterlimit:4;" d="M 39.948211 140.410226 C 41.161519 140.890961 42.420613 142.298829 42.294704 143.603683 C 42.145902 145.011551 40.440402 145.721208 39.089737 146.407973 C 36.319731 147.827287 30.104385 148.056208 26.716277 146.018806 C 25.812019 145.48084 25.434291 144.485031 25.434291 143.500668 C 25.434291 142.470521 26.292764 140.993976 26.292764 140.993976 " transform="matrix(0.341267,0,0,0.341274,35.175579,41.159765)"/>
</g>
</g>
<g clip-path="url(#clip82)" clip-rule="nonzero">
<g clip-path="url(#clip83)" clip-rule="nonzero">
<path style=" stroke:none;fill-rule:nonzero;fill:rgb(100%,72.156864%,10.980392%);fill-opacity:1;" d="M 49.097656 87.246094 C 49.511719 87.410156 49.875 87.84375 49.824219 88.300781 C 49.773438 88.753906 49.265625 89.015625 48.808594 89.195312 C 47.460938 89.726562 45.375 89.890625 44.21875 89.195312 C 43.910156 89.011719 43.785156 88.699219 43.785156 88.363281 C 43.785156 87.953125 44.21875 87.3125 44.21875 87.3125 "/>
</g>
</g>
<g clip-path="url(#clip84)" clip-rule="nonzero">
<g clip-path="url(#clip85)" clip-rule="nonzero">
<path style="fill:none;stroke-width:1.69954;stroke-linecap:butt;stroke-linejoin:miter;stroke:rgb(0%,0%,0%);stroke-opacity:1;stroke-miterlimit:4;" d="M 40.795237 135.042014 C 42.008546 135.522749 43.073053 136.793264 42.924251 138.132456 C 42.775449 139.460201 41.287429 140.227089 39.948211 140.753608 C 35.999234 142.310276 29.886905 142.791011 26.498797 140.753608 C 25.594539 140.215643 25.228257 139.299956 25.228257 138.315593 C 25.228257 137.113755 26.498797 135.236597 26.498797 135.236597 " transform="matrix(0.341267,0,0,0.341274,35.175579,41.159765)"/>
</g>
</g>
<g clip-path="url(#clip86)" clip-rule="nonzero">
<g clip-path="url(#clip87)" clip-rule="nonzero">
<path style=" stroke:none;fill-rule:nonzero;fill:rgb(100%,72.156864%,10.980392%);fill-opacity:1;" d="M 43.585938 84.441406 C 43.585938 85.007812 43.949219 85.539062 45.09375 85.679688 C 47.027344 85.914062 48.230469 85.042969 49.097656 85.371094 C 49.414062 85.492188 49.835938 85.746094 49.839844 86.324219 C 49.839844 86.757812 49.261719 87.082031 48.808594 87.269531 C 47.566406 87.785156 45.375 87.964844 44.21875 87.269531 C 43.910156 87.085938 43.785156 86.789062 43.785156 86.453125 C 43.785156 85.996094 44.050781 85.746094 44.234375 85.425781 "/>
</g>
</g>
<g clip-path="url(#clip88)" clip-rule="nonzero">
<g clip-path="url(#clip89)" clip-rule="nonzero">
<path style="fill:none;stroke-width:1.69954;stroke-linecap:butt;stroke-linejoin:miter;stroke:rgb(0%,0%,0%);stroke-opacity:1;stroke-miterlimit:4;" d="M 24.644495 126.823728 C 24.644495 128.483409 25.709002 130.040076 29.062771 130.452135 C 34.728694 131.1389 38.254157 128.586424 40.795237 129.547895 C 41.722389 129.902724 42.95859 130.646719 42.970036 132.340739 C 42.970036 133.611254 41.275982 134.561279 39.948211 135.11069 C 36.308284 136.621573 29.886905 137.148093 26.498797 135.11069 C 25.594539 134.572725 25.228257 133.702822 25.228257 132.718459 C 25.228257 131.379268 26.006606 130.646719 26.544583 129.70814 " transform="matrix(0.341267,0,0,0.341274,35.175579,41.159765)"/>
</g>
</g>
<g clip-path="url(#clip90)" clip-rule="nonzero">
<g clip-path="url(#clip91)" clip-rule="nonzero">
<path style=" stroke:none;fill-rule:nonzero;fill:rgb(100%,72.156864%,10.980392%);fill-opacity:1;" d="M 92.453125 100.824219 C 90.988281 103.265625 93.023438 105.449219 91.917969 107.320312 C 88.351562 106.511719 84.800781 106.148438 82.539062 109.449219 C 81.433594 111.070312 82.777344 112.617188 84.703125 111.808594 C 86.429688 113.394531 88.460938 112.378906 90.949219 111.511719 C 91.921875 111.171875 93.550781 112.152344 94.839844 111.65625 C 96.304688 111.089844 97.296875 109.417969 98.226562 106.738281 L 99.671875 107.347656 C 99.6875 106.199219 99.179688 105.328125 98.511719 104.535156 L 100.238281 105.113281 C 100.246094 103.976562 99.664062 103.167969 99.121094 102.511719 L 100.78125 103.125 C 100.449219 101.636719 100.769531 100.375 100.625 99.875 C 100.304688 98.792969 100.136719 99.328125 99.71875 97.316406 C 94.722656 95.125 95.796875 89.96875 96.714844 87.785156 L 87.203125 94.347656 C 85.28125 95.597656 87.921875 100.097656 92.453125 100.824219 Z M 92.453125 100.824219 "/>
</g>
</g>
<g clip-path="url(#clip92)" clip-rule="nonzero">
<g clip-path="url(#clip93)" clip-rule="nonzero">
<path style="fill:none;stroke-width:1.69954;stroke-linecap:butt;stroke-linejoin:miter;stroke:rgb(0%,0%,0%);stroke-opacity:1;stroke-miterlimit:4;" d="M 167.837822 174.828592 C 163.545456 181.982393 169.508983 188.380752 166.269678 193.863425 C 155.819197 191.494086 145.414502 190.429601 138.78709 200.10154 C 135.547784 204.851663 139.485314 209.384311 145.128345 207.014973 C 150.187613 211.662082 156.139694 208.6861 163.430993 206.14507 C 166.281124 205.149261 171.054235 208.022228 174.831517 206.568575 C 179.123883 204.908894 182.031245 200.009971 184.755467 192.157959 L 188.990601 193.943548 C 189.036386 190.5784 187.548366 188.025924 185.591047 185.702369 L 190.650316 187.396389 C 190.673209 184.06558 188.967709 181.696241 187.376672 179.773299 L 192.241353 181.570334 C 191.268417 177.209377 192.207014 173.512293 191.783501 172.047195 C 190.844903 168.87663 190.352712 170.444743 189.127957 164.550011 C 174.488128 158.12876 177.635863 143.019933 180.325745 136.621573 L 152.453983 155.85099 C 146.822399 159.513736 154.560103 172.699621 167.837822 174.828592 Z M 167.837822 174.828592 " transform="matrix(0.341267,0,0,0.341274,35.175579,41.159765)"/>
</g>
</g>
<g clip-path="url(#clip94)" clip-rule="nonzero">
<g clip-path="url(#clip95)" clip-rule="nonzero">
<path style=" stroke:none;fill-rule:nonzero;fill:rgb(100%,72.156864%,10.980392%);fill-opacity:1;" d="M 124.835938 56.976562 C 123.980469 56.960938 123.117188 57.351562 122.570312 58.46875 C 121.078125 56.441406 118.230469 57.425781 117.695312 59.355469 C 121.085938 59.234375 121.863281 60.253906 121.835938 61.8125 C 121.820312 62.90625 120.941406 63.652344 119.863281 63.746094 C 119.214844 63.796875 118.457031 63.546875 117.726562 62.796875 C 116.582031 61.628906 115.601562 60.449219 114.53125 59.46875 C 108.683594 54.089844 101.613281 62.003906 105.859375 67.738281 C 107.773438 70.320312 113.203125 72.363281 115.414062 73.8125 C 118.253906 75.671875 119.132812 77.308594 118.914062 79.515625 C 118.703125 81.695312 117.1875 83.148438 113.738281 83.132812 C 111.183594 83.121094 107.496094 80.824219 104.390625 80.367188 C 98.585938 79.515625 94.816406 81.472656 90.660156 81.496094 C 82.726562 81.535156 76.484375 78.390625 76.484375 78.390625 L 64.898438 91.808594 C 62.515625 93.492188 61.59375 98.480469 64.898438 100.625 C 62.222656 102.226562 62.429688 104.765625 60.515625 107.320312 C 56.640625 106.425781 53.394531 106.289062 51.140625 109.449219 C 50.074219 111.097656 51.375 112.617188 53.300781 111.808594 C 55.027344 113.394531 57.054688 112.378906 59.539062 111.511719 C 60.53125 111.167969 62.199219 112.167969 63.4375 111.65625 C 65.105469 110.964844 67.398438 107.25 67.515625 107.015625 L 68.457031 108.207031 C 69.09375 107.21875 69.125 106.230469 68.976562 105.242188 L 70.164062 106.519531 C 70.789062 105.53125 70.742188 104.546875 70.589844 103.746094 L 71.714844 105.019531 C 71.714844 105.019531 71.898438 104.464844 72.351562 103.691406 C 72.84375 102.984375 73.378906 101.476562 73.34375 100.640625 C 73.992188 101.207031 74.488281 101.5 75.324219 101.386719 C 75.285156 100.292969 75.527344 99.847656 75.839844 99.363281 C 76.699219 99.359375 77.828125 99.292969 79.136719 99.132812 C 83.515625 98.589844 91.304688 97.375 96.152344 93.347656 C 99.183594 90.824219 101.503906 91.757812 102.433594 93.777344 C 103.597656 96.308594 105.816406 99.90625 110.363281 100.816406 C 108.898438 103.261719 110.921875 105.449219 109.816406 107.320312 C 105.78125 106.414062 102.488281 106.507812 100.441406 109.449219 C 99.320312 111.0625 100.675781 112.617188 102.601562 111.808594 C 104.328125 113.394531 106.355469 112.378906 108.839844 111.511719 C 109.824219 111.171875 111.453125 112.152344 112.738281 111.65625 C 114.203125 111.089844 115.214844 109.429688 116.144531 106.75 L 117.574219 107.332031 C 117.589844 106.1875 117.085938 105.324219 116.417969 104.53125 L 118.152344 105.113281 C 118.164062 103.976562 117.515625 103.082031 117.027344 102.507812 L 118.703125 103.117188 C 118.34375 101.699219 118.667969 100.386719 118.519531 99.875 C 118.203125 98.804688 117.992188 99.238281 117.636719 97.324219 C 111.285156 94.3125 116.296875 89.765625 111.582031 85.722656 C 117.125 86.007812 120.703125 83.917969 121.082031 79.625 C 121.332031 76.0625 119.320312 73.8125 116.535156 72.171875 C 113.226562 70.222656 108.945312 68.359375 107.570312 66.554688 C 104.433594 62.4375 109.480469 57.414062 113.078125 60.9375 C 113.550781 61.40625 113.988281 61.792969 114.359375 62.195312 C 116.636719 64.679688 117.554688 65.730469 119.78125 65.753906 C 121.980469 65.699219 123.675781 64.074219 123.875 61.839844 C 124.023438 60.1875 123.992188 58.921875 127.378906 58.371094 C 127.019531 57.683594 125.9375 56.992188 124.835938 56.976562 Z M 124.835938 56.976562 "/>
</g>
</g>
<g clip-path="url(#clip96)" clip-rule="nonzero">
<g clip-path="url(#clip97)" clip-rule="nonzero">
<path style="fill:none;stroke-width:1.69954;stroke-linecap:butt;stroke-linejoin:miter;stroke:rgb(0%,0%,0%);stroke-opacity:1;stroke-miterlimit:4;" d="M 262.727724 46.346331 C 260.220983 46.300546 257.691348 47.445154 256.088865 50.718734 C 251.716375 44.778218 243.372016 47.66263 241.803871 53.316994 C 251.739268 52.962166 254.017083 55.949593 253.936959 60.516579 C 253.891174 63.721482 251.315754 65.907683 248.156573 66.182389 C 246.256486 66.331188 244.035902 65.598639 241.895442 63.400992 C 238.541673 59.978613 235.66865 56.521897 232.532361 53.648931 C 215.397236 37.887677 194.679417 61.077437 207.121555 77.880284 C 212.730246 85.446144 228.640616 91.432445 235.119227 95.678941 C 243.440693 101.127275 246.016113 105.923183 245.37512 112.390219 C 244.757019 118.777133 240.315851 123.035075 230.20876 122.98929 C 222.722874 122.954952 211.917558 116.224656 202.817743 114.885465 C 185.808527 112.390219 174.762839 118.124706 162.583966 118.193382 C 139.336512 118.307843 121.04531 109.093748 121.04531 109.093748 L 87.095558 148.411037 C 80.113309 153.344298 77.41198 167.960944 87.095558 174.244842 C 79.254836 178.937735 79.86149 186.377688 74.252799 193.863425 C 62.89806 191.242273 53.386177 190.84166 46.781657 200.10154 C 43.656815 204.931786 47.468436 209.384311 53.111466 207.014973 C 58.170735 211.662082 64.111369 208.6861 71.391222 206.14507 C 74.298584 205.137815 79.186158 208.068012 82.814638 206.568575 C 87.702212 204.542619 94.421196 193.657396 94.764585 192.970631 L 97.523145 196.461686 C 99.388894 193.565827 99.480464 190.669969 99.045504 187.77411 L 102.525182 191.516979 C 104.356592 188.62112 104.219236 185.736708 103.77283 183.390261 L 107.069367 187.121683 C 107.069367 187.121683 107.607344 185.49634 108.935115 183.230016 C 110.37735 181.158275 111.945495 176.740088 111.842478 174.290626 C 113.742565 175.950308 115.196247 176.808764 117.645757 176.476828 C 117.531294 173.271925 118.240965 171.967072 119.156669 170.547758 C 121.674857 170.536312 124.982841 170.341728 128.817354 169.872439 C 141.648667 168.281434 164.472607 164.721703 178.677477 152.920793 C 187.559813 145.526624 194.35892 148.262238 197.083142 154.179862 C 200.494142 161.596922 206.995645 172.138763 220.319149 174.8057 C 216.026783 181.970947 221.955971 188.380752 218.716666 193.863425 C 206.892629 191.207934 197.24339 191.48264 191.245524 200.10154 C 187.960433 204.828771 191.932303 209.384311 197.575333 207.014973 C 202.634602 211.662082 208.575236 208.6861 215.855089 206.14507 C 218.739558 205.149261 223.512669 208.022228 227.278505 206.568575 C 231.570871 204.908894 234.535465 200.044309 237.259687 192.192297 L 241.449036 193.897764 C 241.494821 190.544062 240.018247 188.014478 238.060928 185.690923 L 243.143089 187.396389 C 243.177428 184.06558 241.277341 181.444427 239.846552 179.761853 L 244.757019 181.547442 C 243.703959 177.392514 244.654002 173.546631 244.219042 172.047195 C 243.291891 168.910968 242.673791 170.181483 241.632177 164.572903 C 223.020478 155.747975 237.706093 142.424736 223.890398 130.578042 C 240.13271 131.413606 250.617529 125.289953 251.727821 112.71071 C 252.460385 102.271883 246.565536 95.678941 238.404317 90.871587 C 228.709294 85.159992 216.164139 79.700211 212.135038 74.412122 C 202.943652 62.347952 217.732283 47.628292 228.274334 57.952657 C 229.659337 59.326187 230.941324 60.459349 232.028723 61.638295 C 238.701922 68.918003 241.391804 71.996999 247.9162 72.065675 C 254.360472 71.90543 259.32817 67.14386 259.911932 60.596702 C 260.346892 55.755009 260.255322 52.046479 270.179271 50.432582 C 269.126211 48.418071 265.955583 46.392115 262.727724 46.346331 Z M 262.727724 46.346331 " transform="matrix(0.341267,0,0,0.341274,35.175579,41.159765)"/>
</g>
</g>
<g clip-path="url(#clip98)" clip-rule="nonzero">
<g clip-path="url(#clip99)" clip-rule="nonzero">
<path style=" stroke:none;fill-rule:nonzero;fill:rgb(100%,72.156864%,10.980392%);fill-opacity:1;" d="M 60.46875 86.617188 L 60.28125 89.0625 C 59.960938 90.402344 59.566406 93.679688 60.496094 94.683594 C 61.222656 94.785156 62.058594 94.222656 62.605469 93.582031 C 62.601562 94.25 62.796875 95.535156 63.613281 96.445312 C 64.492188 96.214844 65.351562 95.304688 65.691406 94.695312 C 65.984375 95.472656 66.351562 96.390625 67.160156 97.03125 C 68.082031 96.496094 68.613281 95.636719 69 94.785156 C 69.414062 95.585938 69.921875 96.429688 70.855469 96.855469 C 71.71875 96.121094 71.972656 95.566406 72.285156 94.582031 C 72.894531 95.46875 73.570312 95.960938 74.492188 96.109375 C 75.214844 95.351562 75.316406 94.480469 75.441406 93.464844 C 76.097656 94.324219 76.960938 94.734375 77.964844 94.820312 C 78.429688 93.878906 78.332031 92.886719 78.273438 92.019531 C 78.960938 92.59375 79.925781 93.0625 80.867188 93.0625 C 81.28125 91.851562 80.988281 90.730469 80.703125 89.941406 C 81.480469 90.445312 82.453125 90.476562 83.148438 90.367188 C 83.515625 89.132812 82.550781 85.683594 80.058594 83.84375 Z M 60.46875 86.617188 "/>
</g>
</g>
<g clip-path="url(#clip100)" clip-rule="nonzero">
<g clip-path="url(#clip101)" clip-rule="nonzero">
<path style="fill:none;stroke-width:1.69954;stroke-linecap:butt;stroke-linejoin:miter;stroke:rgb(0%,0%,0%);stroke-opacity:1;stroke-miterlimit:4;" d="M 74.115443 133.199195 L 73.56602 140.364442 C 72.627423 144.290448 71.471346 153.89371 74.195567 156.835353 C 76.324581 157.132951 78.774091 155.484715 80.376574 153.607558 C 80.365128 155.564838 80.937443 159.330598 83.329722 161.997535 C 85.905142 161.322216 88.42333 158.65528 89.419158 156.869691 C 90.277632 159.147461 91.353585 161.83729 93.722971 163.714447 C 96.4243 162.146334 97.980998 159.628196 99.114182 157.132951 C 100.327491 159.479397 101.815511 161.951751 104.551179 163.199374 C 107.080813 161.04751 107.824823 159.422167 108.740528 156.537754 C 110.526152 159.136015 112.506364 160.578221 115.207693 161.013172 C 117.32526 158.792632 117.622864 156.240156 117.989146 153.264175 C 119.912126 155.782313 122.44176 156.984152 125.383462 157.235965 C 126.745572 154.47746 126.459415 151.570155 126.28772 149.029125 C 128.30227 150.711699 131.129509 152.085229 133.888069 152.085229 C 135.101378 148.536944 134.242905 145.251918 133.407324 142.93981 C 135.68514 144.416354 138.535271 144.507923 140.572714 144.187433 C 141.648667 140.570471 138.821428 130.463581 131.518683 125.072477 Z M 74.115443 133.199195 " transform="matrix(0.341267,0,0,0.341274,35.175579,41.159765)"/>
</g>
</g>
<g clip-path="url(#clip102)" clip-rule="nonzero">
<g clip-path="url(#clip103)" clip-rule="nonzero">
<path style=" stroke:none;fill-rule:nonzero;fill:rgb(100%,72.156864%,10.980392%);fill-opacity:1;" d="M 58.796875 79.074219 C 58.796875 79.074219 56.265625 82.976562 55.824219 84.808594 C 55.535156 85.992188 55.597656 86.5625 55.898438 87.578125 C 56.621094 87.539062 57.714844 87.292969 58.226562 86.769531 C 58.195312 87.695312 58.128906 88.742188 58.765625 89.6875 C 59.859375 89.636719 60.777344 88.6875 61.285156 88.058594 C 61.28125 89.164062 61.1875 90.132812 62.117188 91.179688 C 63.378906 90.964844 63.972656 89.847656 64.578125 89.097656 C 64.722656 89.996094 64.898438 91.070312 65.917969 92.058594 C 67.171875 91.398438 67.625 90.359375 67.96875 89.433594 C 68.378906 90.351562 68.75 91.226562 69.90625 91.914062 C 70.9375 91.074219 71.292969 89.644531 71.371094 89.078125 C 71.824219 89.816406 72.582031 90.8125 73.660156 91.054688 C 74.417969 90.398438 74.636719 89.019531 74.640625 87.941406 C 75.203125 88.726562 75.9375 89.597656 77.027344 89.675781 C 77.867188 88.835938 77.707031 87.574219 77.652344 86.640625 C 78.382812 87.285156 79.195312 87.96875 80.296875 87.847656 C 80.824219 86.902344 80.726562 85.898438 80.503906 84.941406 C 81.257812 85.582031 82.035156 85.972656 83.285156 85.941406 C 83.628906 84.917969 83.378906 83.773438 83.148438 83.179688 C 84.140625 83.492188 85.328125 83.609375 86.46875 82.914062 C 84.929688 79.246094 80.699219 78.4375 76.4375 77.71875 Z M 58.796875 79.074219 "/>
</g>
</g>
<g clip-path="url(#clip104)" clip-rule="nonzero">
<g clip-path="url(#clip105)" clip-rule="nonzero">
<path style="fill:none;stroke-width:1.69954;stroke-linecap:butt;stroke-linejoin:miter;stroke:rgb(0%,0%,0%);stroke-opacity:1;stroke-miterlimit:4;" d="M 69.216423 111.096812 C 69.216423 111.096812 61.799215 122.531447 60.505782 127.899659 C 59.658755 131.367822 59.841896 133.03895 60.723262 136.014931 C 62.840829 135.90047 66.045795 135.179367 67.545262 133.645592 C 67.453691 136.358313 67.259104 139.425863 69.124852 142.195815 C 72.329819 142.047016 75.019702 139.265618 76.507722 137.422799 C 76.496276 140.66204 76.221564 143.500668 78.945786 146.568218 C 82.642943 145.938683 84.382782 142.665104 86.15696 140.467456 C 86.580474 143.100055 87.095558 146.247727 90.083044 149.143586 C 93.75731 147.209198 95.085081 144.164541 96.092357 141.451819 C 97.294219 144.141649 98.381618 146.705571 101.769726 148.720081 C 104.791552 146.259174 105.833166 142.069908 106.062092 140.410226 C 107.389864 142.573535 109.610448 145.492286 112.769629 146.201943 C 114.990213 144.279002 115.631206 140.238535 115.642653 137.079416 C 117.290921 139.380079 119.442827 141.932555 122.636347 142.161476 C 125.097304 139.700569 124.628005 136.003485 124.467757 133.267871 C 126.608217 135.156475 128.989049 137.159539 132.216908 136.80471 C 133.76216 134.034759 133.476002 131.093116 132.823563 128.288826 C 135.0327 130.165983 137.310516 131.310592 140.973335 131.219023 C 141.98061 128.22015 141.248046 124.866448 140.572714 123.126643 C 143.480076 124.04233 146.959754 124.385712 150.302076 122.34831 C 145.792231 111.60044 133.395878 109.231101 120.907955 107.125022 Z M 69.216423 111.096812 " transform="matrix(0.341267,0,0,0.341274,35.175579,41.159765)"/>
</g>
</g>
<g clip-path="url(#clip106)" clip-rule="nonzero">
<g clip-path="url(#clip107)" clip-rule="nonzero">
<path style=" stroke:none;fill-rule:nonzero;fill:rgb(100%,72.156864%,10.980392%);fill-opacity:1;" d="M 75.335938 60.863281 C 75.167969 60.433594 75.253906 59.492188 75.253906 59.492188 C 72.542969 60.117188 72.367188 60.675781 71.3125 61.976562 C 71.492188 60.917969 71.375 60.453125 70.476562 59.769531 C 70.101562 60.238281 69.671875 61.289062 69.222656 61.699219 C 69.070312 60.742188 68.863281 59.921875 67.996094 59.308594 C 67.238281 59.972656 66.804688 60.714844 66.769531 61.699219 C 66.316406 61.289062 65.890625 60.238281 65.511719 59.769531 C 64.617188 60.453125 64.5 60.917969 64.675781 61.976562 C 63.351562 60.332031 62.738281 59.882812 60.738281 59.492188 C 60.738281 59.492188 60.761719 60.414062 60.652344 60.863281 C 60.402344 61.898438 59.179688 63.238281 60.242188 64.875 C 57.195312 66.804688 57.859375 69.152344 56.175781 71.949219 C 56.933594 71.875 57.097656 72.019531 58.269531 71.851562 C 56.652344 73.105469 56.308594 73.722656 56.0625 75.546875 C 56.648438 75.332031 57.148438 75.503906 58.289062 75.210938 C 57.902344 76.042969 57.066406 76.648438 56.597656 77.042969 C 55.445312 78.011719 54.972656 78.988281 54.6875 80.109375 C 55.710938 80.4375 56.664062 80.007812 57.335938 79.75 C 57.121094 80.144531 56.367188 81.570312 56.875 82.46875 C 57.910156 82.683594 58.84375 81.835938 59.496094 81.417969 C 59.402344 82.25 58.914062 83.363281 59.511719 84.152344 C 60.519531 84.160156 61.292969 83.519531 61.910156 82.890625 C 61.792969 83.757812 61.753906 84.550781 62.40625 85.519531 C 63.460938 85.207031 64.058594 84.589844 64.585938 83.945312 C 64.679688 84.789062 64.726562 85.65625 65.59375 86.476562 C 66.835938 85.929688 67.203125 85.050781 67.570312 84.378906 C 67.78125 85.128906 68.257812 86.199219 69.085938 86.675781 C 70.019531 86.054688 70.457031 84.757812 70.582031 84.066406 C 70.90625 84.726562 71.578125 85.636719 72.582031 85.96875 C 73.355469 85.171875 73.421875 84.027344 73.488281 83.21875 C 74.058594 83.804688 74.835938 84.542969 75.863281 84.65625 C 76.558594 83.839844 76.410156 82.703125 76.226562 81.785156 C 76.9375 82.355469 77.824219 82.78125 78.863281 82.648438 C 79.203125 81.757812 79.074219 80.902344 78.769531 80.121094 C 79.554688 80.367188 80.578125 80.828125 81.816406 80.308594 C 81.804688 78.933594 80.113281 77.488281 79.25 76.957031 C 78.730469 76.632812 78.132812 75.957031 77.753906 75.210938 C 78.523438 75.433594 79.15625 75.359375 79.742188 75.546875 C 79.464844 73.671875 79.109375 73.097656 77.503906 71.851562 C 78.726562 72.042969 78.878906 71.875 79.636719 71.949219 C 77.953125 69.152344 78.261719 66.320312 75.746094 64.875 C 76.535156 62.972656 76.019531 62.585938 75.335938 60.863281 Z M 75.335938 60.863281 "/>
</g>
</g>
<g clip-path="url(#clip108)" clip-rule="nonzero">
<g clip-path="url(#clip109)" clip-rule="nonzero">
<path style="fill:none;stroke-width:1.69954;stroke-linecap:butt;stroke-linejoin:miter;stroke:rgb(0%,0%,0%);stroke-opacity:1;stroke-miterlimit:4;" d="M 117.680096 57.735181 C 117.187904 56.476113 117.439723 53.717607 117.439723 53.717607 C 109.495985 55.54898 108.980901 57.18577 105.890397 60.997315 C 106.416927 57.895427 106.073538 56.533343 103.440887 54.530279 C 102.342041 55.903809 101.082947 58.982804 99.766622 60.184643 C 99.320216 57.380353 98.713561 54.976676 96.172481 53.179641 C 93.951897 55.125475 92.681357 57.30023 92.57834 60.184643 C 91.250568 58.982804 90.00292 55.903809 88.892628 54.530279 C 86.271423 56.533343 85.928034 57.895427 86.443118 60.997315 C 82.562819 56.178514 80.765749 54.862215 74.905239 53.717607 C 74.905239 53.717607 74.973916 56.418882 74.65342 57.735181 C 73.920856 60.768393 70.338161 64.694399 73.451557 69.490307 C 64.523436 75.144671 66.469309 82.023766 61.53595 90.21916 C 63.756534 90.001684 64.237278 90.425189 67.671171 89.933008 C 62.932399 93.6072 61.925124 95.415681 61.204007 100.761001 C 62.920953 100.131466 64.386081 100.635094 67.728403 99.776638 C 66.595218 102.214653 64.145708 103.988796 62.772151 105.14485 C 59.39549 107.983478 58.010486 110.844998 57.174906 114.130024 C 60.173839 115.091494 62.966738 113.832425 64.935503 113.076984 C 64.305956 114.233038 62.096819 118.410858 63.584839 121.043457 C 66.618111 121.672991 69.353779 119.189192 71.265312 117.964461 C 70.990601 120.402476 69.559812 123.664609 71.311097 125.976718 C 74.264245 125.99961 76.530614 124.122453 78.339131 122.279633 C 77.995742 124.820663 77.881279 127.144218 79.792813 129.982846 C 82.883316 129.06716 84.634601 127.258679 86.179853 125.370075 C 86.454564 127.842429 86.59192 130.383459 89.133001 132.787136 C 92.772927 131.184685 93.84888 128.609316 94.924833 126.64059 C 95.542934 128.838238 96.939384 131.974464 99.366001 133.370886 C 102.101669 131.550959 103.383656 127.75086 103.749937 125.724904 C 104.699981 127.659292 106.668746 130.326229 109.610448 131.299145 C 111.876817 128.964145 112.071404 125.610443 112.265991 123.241104 C 113.937153 124.958016 116.214968 127.121326 119.225347 127.453262 C 121.26279 125.061031 120.827831 121.730222 120.289854 119.040392 C 122.373082 120.71152 124.971394 121.959143 128.016113 121.569976 C 129.011942 118.96027 128.634213 116.453578 127.741401 114.164362 C 130.042109 114.885465 133.041042 116.236103 136.669522 114.713774 C 136.635183 110.684753 131.678932 106.449703 129.149297 104.893036 C 127.626938 103.943011 125.875653 101.962839 124.765361 99.776638 C 127.020284 100.429064 128.874586 100.211589 130.591532 100.761001 C 129.778844 95.266882 128.73723 93.584308 124.032797 89.933008 C 127.615492 90.493866 128.061898 90.001684 130.282482 90.21916 C 125.349123 82.023766 126.253381 73.725357 118.881958 69.490307 C 121.194112 63.916065 119.6832 62.782903 117.680096 57.735181 Z M 117.680096 57.735181 " transform="matrix(0.341267,0,0,0.341274,35.175579,41.159765)"/>
</g>
</g>
<g clip-path="url(#clip110)" clip-rule="nonzero">
<g clip-path="url(#clip111)" clip-rule="nonzero">
<path style=" stroke:none;fill-rule:nonzero;fill:rgb(0%,0%,0%);fill-opacity:1;" d="M 80.703125 89.941406 L 80.65625 90.777344 C 80.382812 89.753906 80.074219 89.300781 79.828125 88.765625 C 80.3125 89.175781 80.605469 89.6875 81.523438 90 Z M 79.046875 92.214844 L 78.273438 92.019531 L 78.027344 92.78125 C 77.96875 91.660156 77.679688 91.089844 77.503906 90.464844 C 77.925781 90.972656 78.097656 91.644531 79.046875 92.214844 Z M 76.234375 93.867188 L 75.441406 93.464844 L 75.039062 94.257812 C 75.179688 93.125 74.851562 92.363281 74.742188 91.597656 C 75.097656 92.273438 75.398438 93.144531 76.234375 93.867188 Z M 73.035156 95.042969 L 72.285156 94.582031 L 71.761719 95.203125 C 72.132812 94.207031 71.921875 93.097656 71.910156 92.347656 C 72.167969 93.050781 72.316406 94.273438 73.035156 95.042969 Z M 69.597656 95.269531 L 69 94.785156 L 68.429688 95.269531 C 68.902344 94.332031 68.871094 93.496094 68.964844 92.84375 C 69.101562 93.480469 69.105469 94.375 69.597656 95.269531 Z M 65.054688 95.09375 L 65.691406 94.695312 L 66.203125 95.199219 C 65.898438 94.425781 66 93.519531 65.957031 92.910156 C 65.769531 93.480469 65.621094 94.382812 65.054688 95.09375 Z M 62.605469 93.582031 L 62.949219 94.265625 C 62.832031 93.425781 63.007812 92.710938 63.089844 92.066406 C 62.765625 92.652344 62.546875 93.324219 61.914062 93.855469 Z M 62.605469 93.582031 "/>
</g>
</g>
<g clip-path="url(#clip112)" clip-rule="nonzero">
<g clip-path="url(#clip113)" clip-rule="nonzero">
<path style=" stroke:none;fill-rule:nonzero;fill:rgb(0%,0%,0%);fill-opacity:1;" d="M 83.148438 83.179688 L 83.101562 84.109375 C 82.925781 82.953125 82.132812 82.085938 81.894531 81.621094 C 82.355469 81.988281 82.984375 82.859375 83.964844 83.082031 Z M 81.375 85.214844 L 80.503906 84.941406 L 80.355469 85.710938 C 80.191406 84.636719 79.734375 84.011719 79.457031 83.324219 C 79.996094 83.933594 80.421875 84.609375 81.375 85.214844 Z M 78.320312 86.832031 L 77.652344 86.640625 L 77.40625 87.335938 C 77.367188 86.289062 77.085938 85.71875 76.910156 85 C 77.34375 85.621094 77.617188 86.226562 78.320312 86.832031 Z M 75.304688 88.332031 L 74.65625 87.941406 L 74.328125 88.539062 C 74.390625 87.613281 74.199219 87.054688 74.070312 86.1875 C 74.484375 86.953125 74.699219 87.59375 75.304688 88.332031 Z M 68.503906 89.910156 L 67.96875 89.433594 L 67.453125 89.949219 C 67.894531 88.953125 67.875 88.101562 68.027344 87.546875 C 68.121094 88.09375 68.097656 88.933594 68.503906 89.910156 Z M 72.019531 89.511719 L 71.371094 89.082031 L 70.890625 89.847656 C 71.242188 88.660156 71.097656 87.839844 71.136719 87.132812 C 71.378906 87.828125 71.457031 88.722656 72.019531 89.511719 Z M 63.839844 89.597656 L 64.578125 89.097656 L 65 89.804688 C 64.757812 88.695312 64.886719 87.921875 64.882812 87.339844 C 64.652344 87.867188 64.476562 88.734375 63.839844 89.597656 Z M 60.550781 88.445312 L 61.285156 88.058594 L 61.570312 88.769531 C 61.601562 87.761719 61.890625 86.960938 61.972656 86.429688 C 61.671875 86.867188 61.285156 87.648438 60.550781 88.445312 Z M 57.457031 86.933594 L 58.226562 86.769531 L 58.5 87.6875 C 58.492188 86.621094 59.007812 85.496094 59.160156 84.933594 C 58.84375 85.417969 58.324219 86.496094 57.457031 86.933594 Z M 57.457031 86.933594 "/>
</g>
</g>
<g clip-path="url(#clip114)" clip-rule="nonzero">
<g clip-path="url(#clip115)" clip-rule="nonzero">
<path style=" stroke:none;fill-rule:nonzero;fill:rgb(0%,0%,0%);fill-opacity:1;" d="M 61.578125 61.003906 C 61.726562 62.949219 60.332031 63.058594 61.457031 65.054688 C 61.933594 63.621094 62.449219 63.503906 63.832031 64.109375 C 63.78125 62.15625 62.96875 61.996094 61.578125 61.003906 Z M 74.300781 61.003906 C 72.914062 61.996094 72.097656 62.15625 72.046875 64.109375 C 73.429688 63.503906 73.949219 63.621094 74.421875 65.054688 C 75.546875 63.058594 74.152344 62.949219 74.300781 61.003906 Z M 61.0625 66.464844 C 59.898438 67.175781 59.683594 68.894531 61.550781 69.597656 C 60.128906 70.816406 60.375 73.542969 61.671875 74.867188 C 61.15625 75.554688 60.132812 77.140625 59.679688 78.070312 C 60.632812 77.261719 61.355469 76.234375 62.15625 75.28125 C 62.4375 75.484375 62.765625 75.652344 63.164062 75.808594 C 62.785156 76.523438 62.035156 78.402344 61.761719 79.414062 C 62.5625 78.488281 63.265625 76.863281 63.800781 76.03125 C 64.0625 76.101562 64.34375 76.132812 64.625 76.171875 C 64.414062 76.765625 64.488281 77.394531 64.835938 77.917969 C 64.457031 78.589844 63.667969 80.550781 63.375 81.578125 C 64.128906 80.726562 64.792969 79.285156 65.324219 78.414062 C 65.628906 78.660156 66 78.847656 66.449219 78.96875 C 66.277344 79.839844 66.085938 81.65625 66.082031 82.628906 C 66.582031 81.632812 66.84375 80.070312 67.117188 79.109375 C 67.453125 79.175781 67.9375 79.175781 68.273438 79.109375 C 68.550781 80.070312 68.8125 81.632812 69.308594 82.628906 C 69.308594 81.65625 69.113281 79.839844 68.945312 78.96875 C 69.394531 78.847656 69.765625 78.660156 70.070312 78.414062 C 70.597656 79.285156 71.261719 80.726562 72.019531 81.578125 C 71.722656 80.550781 70.933594 78.589844 70.558594 77.917969 C 70.902344 77.394531 70.980469 76.765625 70.769531 76.171875 C 71.050781 76.132812 71.328125 76.101562 71.59375 76.03125 C 72.125 76.863281 72.832031 78.488281 73.628906 79.414062 C 73.355469 78.402344 72.605469 76.523438 72.230469 75.808594 C 72.597656 75.664062 72.9375 75.5 73.234375 75.28125 C 73.910156 76.066406 74.832031 77.351562 75.714844 78.070312 C 75.273438 77.167969 74.257812 75.582031 73.722656 74.867188 C 75.019531 73.542969 75.265625 70.816406 73.84375 69.597656 C 75.710938 68.894531 75.492188 67.175781 74.332031 66.464844 C 74.546875 67.078125 74.703125 67.5625 74.515625 68.269531 C 74.132812 69.171875 73.1875 69.226562 72.324219 69.320312 C 72.9375 69.710938 73.597656 70.089844 73.933594 70.765625 C 74.832031 73.929688 71.785156 76.070312 69.1875 75.644531 C 68.164062 75.476562 67.996094 75.296875 68.0625 74.339844 C 68.265625 74.320312 68.523438 74.265625 68.761719 74.148438 C 68.980469 74.039062 69.066406 73.921875 69.15625 73.8125 C 69.246094 73.707031 69.320312 73.628906 69.339844 73.621094 C 69.625 73.496094 70.070312 73.535156 70.070312 73.535156 L 70.4375 73.621094 L 70.464844 73.257812 C 70.492188 72.945312 70.566406 72.746094 70.3125 72.234375 C 70.109375 71.820312 69.796875 71.570312 69.582031 71.433594 C 69.476562 71.363281 69.414062 71.328125 69.371094 71.292969 C 69.328125 71.257812 69.316406 71.242188 69.308594 71.210938 C 69.03125 70.171875 68.941406 69.273438 69.21875 68.40625 C 69.382812 67.890625 69.949219 67.449219 70.679688 67.355469 C 71.46875 67.25 72.425781 67.46875 72.871094 67.546875 C 71.613281 66.117188 69.054688 66.648438 68.550781 68.242188 C 68.234375 69.230469 68.351562 70.277344 68.640625 71.347656 C 68.714844 71.625 68.894531 71.769531 69.1875 71.957031 C 69.375 72.082031 69.558594 72.1875 69.707031 72.484375 C 69.832031 72.738281 69.78125 72.730469 69.765625 72.953125 C 69.546875 72.9375 69.414062 72.777344 69.066406 72.925781 C 68.835938 73.027344 68.710938 73.195312 68.609375 73.316406 C 68.527344 73.410156 68.457031 73.492188 68.449219 73.507812 L 68.449219 73.511719 C 68.351562 73.558594 68.160156 73.605469 68 73.621094 C 67.914062 73.628906 67.480469 73.628906 67.390625 73.621094 C 67.234375 73.605469 67.039062 73.558594 66.941406 73.511719 L 66.945312 73.511719 L 66.945312 73.507812 C 66.9375 73.492188 66.863281 73.410156 66.785156 73.316406 C 66.683594 73.195312 66.558594 73.027344 66.328125 72.925781 C 65.980469 72.777344 65.847656 72.9375 65.628906 72.953125 C 65.613281 72.730469 65.5625 72.738281 65.6875 72.484375 C 65.832031 72.1875 66.019531 72.082031 66.207031 71.957031 C 66.496094 71.769531 66.679688 71.625 66.753906 71.347656 C 67.042969 70.277344 67.160156 69.230469 66.84375 68.242188 C 66.335938 66.648438 63.777344 66.117188 62.523438 67.546875 C 62.964844 67.46875 63.925781 67.25 64.714844 67.355469 C 65.445312 67.449219 66.011719 67.890625 66.175781 68.40625 C 66.449219 69.273438 66.363281 70.171875 66.082031 71.210938 C 66.074219 71.242188 66.066406 71.257812 66.023438 71.292969 C 65.980469 71.328125 65.917969 71.363281 65.808594 71.433594 C 65.59375 71.570312 65.285156 71.820312 65.078125 72.234375 C 64.828125 72.746094 64.902344 72.945312 64.925781 73.257812 L 64.957031 73.621094 L 65.324219 73.535156 C 65.324219 73.535156 65.765625 73.496094 66.054688 73.621094 C 66.070312 73.628906 66.144531 73.707031 66.234375 73.8125 C 66.324219 73.921875 66.414062 74.039062 66.632812 74.148438 C 66.871094 74.265625 67.125 74.320312 67.332031 74.339844 C 67.398438 75.296875 67.230469 75.476562 66.207031 75.644531 C 63.828125 76.035156 60.511719 74.109375 61.457031 70.765625 C 61.796875 70.089844 62.457031 69.710938 63.070312 69.320312 C 62.207031 69.226562 61.261719 69.171875 60.878906 68.269531 C 60.691406 67.5625 60.847656 67.078125 61.0625 66.464844 Z M 64.464844 68.050781 C 64.144531 68.058594 63.824219 68.164062 63.527344 68.296875 C 63.652344 69.003906 64.472656 69.941406 65.871094 69.183594 C 65.507812 68.300781 64.992188 68.039062 64.464844 68.050781 Z M 70.929688 68.050781 C 70.402344 68.039062 69.886719 68.300781 69.523438 69.183594 C 70.921875 69.941406 71.738281 69.003906 71.867188 68.296875 C 71.570312 68.164062 71.246094 68.058594 70.929688 68.050781 Z M 67.695312 75.753906 C 68.265625 76.074219 69.089844 76.316406 70.101562 76.253906 C 70.605469 77.339844 69.453125 78.304688 67.695312 78.304688 C 65.9375 78.304688 64.785156 77.339844 65.292969 76.253906 C 66.304688 76.316406 67.125 76.074219 67.695312 75.753906 Z M 58.679688 78.269531 C 58.386719 78.527344 57.609375 79.316406 56.691406 79.683594 L 57.335938 79.75 L 57.363281 80.34375 C 57.753906 79.425781 58.492188 78.574219 58.679688 78.269531 Z M 77.148438 78.394531 C 77.519531 78.925781 78.394531 79.726562 78.667969 80.742188 L 78.769531 80.121094 L 79.386719 80.019531 C 78.480469 79.640625 77.730469 78.765625 77.148438 78.394531 Z M 60.632812 79.699219 C 60.324219 80.035156 59.722656 80.914062 58.847656 81.511719 L 59.496094 81.417969 L 59.683594 82.019531 C 59.917969 80.851562 60.441406 80.113281 60.632812 79.699219 Z M 75.097656 79.996094 C 75.332031 80.609375 75.878906 81.316406 76.035156 82.386719 L 76.226562 81.785156 L 76.765625 81.824219 C 75.972656 81.300781 75.574219 80.492188 75.097656 79.996094 Z M 62.785156 81.015625 C 62.492188 81.429688 62.035156 82.371094 61.375 83.015625 L 61.910156 82.890625 L 62.144531 83.417969 C 62.246094 82.449219 62.667969 81.496094 62.785156 81.015625 Z M 72.8125 81.183594 C 72.847656 81.734375 73.230469 82.75 73.140625 83.835938 L 73.488281 83.21875 L 74.148438 83.460938 C 73.414062 82.746094 73.085938 81.660156 72.8125 81.183594 Z M 65.140625 81.902344 C 64.929688 82.3125 64.613281 83.515625 64.042969 84.136719 L 64.585938 83.945312 L 64.9375 84.46875 C 64.8125 83.546875 65.109375 82.363281 65.140625 81.902344 Z M 70.316406 81.953125 C 70.265625 82.488281 70.4375 83.539062 70.183594 84.492188 L 70.582031 84.066406 L 71.113281 84.402344 C 70.585938 83.609375 70.460938 82.433594 70.316406 81.953125 Z M 67.652344 82.253906 C 67.535156 82.792969 67.503906 83.859375 67.078125 84.683594 L 67.570312 84.378906 L 68.011719 84.796875 C 67.675781 83.867188 67.726562 82.796875 67.652344 82.253906 Z M 67.652344 82.253906 "/>
</g>
</g>
<g clip-path="url(#clip116)" clip-rule="nonzero">
<g clip-path="url(#clip117)" clip-rule="nonzero">
<path style=" stroke:none;fill-rule:nonzero;fill:rgb(0%,0%,0%);fill-opacity:1;" d="M 58.171875 108.652344 C 55.160156 108.300781 52.089844 109.488281 53.179688 112.148438 L 53.820312 111.929688 C 53.074219 109.417969 56.386719 108.972656 58.171875 108.652344 Z M 104.285156 91.578125 C 104.609375 93.933594 105.410156 95.714844 106.78125 97.066406 C 108.148438 98.417969 110.03125 99.316406 112.53125 99.867188 C 111.691406 98.65625 109.28125 98.148438 107.449219 96.542969 C 105.699219 95.011719 105.457031 92.652344 104.285156 91.578125 Z M 111.839844 107.070312 C 112.21875 106.320312 112.742188 105.378906 112.867188 104.398438 C 112.992188 103.417969 113.105469 102.421875 112.625 101.679688 C 112.035156 102.054688 111.570312 106.921875 111.839844 107.070312 Z M 102.824219 90.878906 C 102.984375 89.746094 102.105469 89.253906 101.234375 89.066406 C 100.210938 88.847656 99.015625 89.160156 98.734375 89.980469 C 100.257812 89.367188 101.921875 89.65625 102.824219 90.878906 Z M 79.828125 94.90625 C 79.652344 96.050781 82.003906 98.433594 83.382812 98.488281 L 84.992188 98.164062 C 82.492188 98.167969 80.273438 96.046875 79.828125 94.90625 Z M 62.890625 108.734375 C 64.097656 107.839844 65.054688 106.523438 65.449219 105.964844 C 66.042969 105.132812 66.347656 104.730469 66.339844 103.671875 C 65.621094 103.726562 62.742188 108.484375 62.890625 108.734375 Z M 107.324219 108.582031 C 104.3125 108.230469 101.242188 109.519531 102.332031 112.179688 L 102.972656 111.929688 C 102.226562 109.417969 105.539062 108.902344 107.324219 108.582031 Z M 89.464844 108.632812 C 86.453125 108.28125 83.382812 109.519531 84.476562 112.179688 L 85.113281 111.929688 C 84.367188 109.417969 87.683594 108.949219 89.464844 108.632812 Z M 87.089844 89.746094 C 87.386719 91.109375 93.289062 94.984375 95.175781 94.09375 L 96.152344 93.347656 C 93.679688 94.410156 88.304688 91.082031 87.089844 89.746094 Z M 85.511719 91.191406 C 85.429688 92.597656 90.875 95.945312 92.496094 95.632812 L 93.929688 94.898438 C 92.210938 95.859375 86.285156 92.679688 85.511719 91.191406 Z M 83.710938 92.582031 C 83.976562 94.339844 88.714844 97.191406 89.847656 96.785156 L 91.429688 96.160156 C 88.847656 96.734375 84.667969 94.285156 83.710938 92.582031 Z M 81.789062 93.832031 C 81.667969 95.175781 84.949219 97.5625 86.425781 97.824219 L 88.285156 97.308594 C 85.925781 97.6875 82.273438 95.050781 81.789062 93.832031 Z M 77.855469 95.800781 C 77.800781 96.3125 78.515625 98.355469 80.007812 99.019531 L 81.574219 98.796875 C 79.535156 98.492188 78.296875 96.601562 77.855469 95.800781 Z M 75.660156 96.578125 C 75.667969 97.207031 76.058594 98.796875 76.875 99.351562 L 78.300781 99.222656 C 76.710938 98.695312 75.875 97.015625 75.660156 96.578125 Z M 93.316406 97.285156 C 92.578125 97.007812 92.285156 96.910156 91.824219 95.984375 L 92.496094 95.632812 C 92.769531 96.507812 93.101562 97.074219 93.316406 97.285156 Z M 92.144531 98.035156 C 91.363281 97.878906 90.847656 97.453125 90.515625 96.535156 L 91.296875 96.214844 C 91.316406 96.4375 91.332031 97.25 92.144531 98.035156 Z M 89.066406 97.058594 L 89.847656 96.785156 C 89.800781 97.414062 90.414062 98.15625 90.90625 98.824219 C 89.988281 98.414062 89.503906 98.078125 89.066406 97.058594 Z M 94.445312 108.503906 C 94.953125 107.824219 95.605469 106.902344 95.886719 105.949219 C 96.167969 105.003906 96.335938 104.132812 95.996094 103.328125 C 95.34375 103.609375 94.207031 108.316406 94.445312 108.503906 Z M 94.445312 108.503906 "/>
</g>
</g>
<g clip-path="url(#clip118)" clip-rule="nonzero">
<g clip-path="url(#clip119)" clip-rule="nonzero">
<path style=" stroke:none;fill-rule:nonzero;fill:rgb(0%,0%,0%);fill-opacity:1;" d="M 107.367188 84.011719 C 110.003906 84.011719 111.15625 85.675781 113.9375 85.394531 L 111.582031 85.722656 C 112.726562 86.75 113.261719 87.703125 113.25 88.570312 C 112.179688 85.445312 109.488281 85.078125 107.367188 84.011719 Z M 107.367188 84.011719 "/>
</g>
</g>
</g>
</svg>
